<svg width="15" height="16" viewBox="0 0 15 16" fill="none" xmlns="http://www.w3.org/2000/svg">
<path fill-rule="evenodd" clip-rule="evenodd" d="M0.998805 2.00898C0.998805 1.29101 1.58083 0.708984 2.2988 0.708984H13.6988C14.4168 0.708984 14.9988 1.29101 14.9988 2.00898C14.9988 2.72695 14.4168 3.30898 13.6988 3.30898H2.2988C1.58083 3.30898 0.998805 2.72695 0.998805 2.00898ZM0.998535 8.20625C0.998535 7.48828 1.58056 6.90625 2.29853 6.90625H13.6985C14.4165 6.90625 14.9985 7.48828 14.9985 8.20625C14.9985 8.92422 14.4165 9.50625 13.6985 9.50625H2.29853C1.58056 9.50625 0.998535 8.92422 0.998535 8.20625ZM2.29853 13.1035C1.58056 13.1035 0.998535 13.6855 0.998535 14.4035C0.998535 15.1215 1.58056 15.7035 2.29853 15.7035H7.69854C8.41651 15.7035 8.99854 15.1215 8.99854 14.4035C8.99854 13.6855 8.41651 13.1035 7.69854 13.1035H2.29853Z" fill="#363A45"/>
</svg>
