<svg width="18" height="18" viewBox="0 0 18 18" fill="none" xmlns="http://www.w3.org/2000/svg">
<path fill-rule="evenodd" clip-rule="evenodd" d="M1.42417 0.927734C1.20326 0.927734 1.02417 1.10682 1.02417 1.32773C1.02417 1.54865 1.20326 1.72773 1.42417 1.72773H1.93652C2.6544 1.72773 3.28441 2.20588 3.47753 2.8973L5.71976 10.9248C5.72441 10.9414 5.73005 10.9575 5.7366 10.9731L5.98761 11.8989C6.15301 12.509 6.70672 12.9326 7.33883 12.9326H15.0037C15.6359 12.9326 16.1896 12.509 16.355 11.8989L17.9426 6.04285C18.1839 5.15274 17.5136 4.27652 16.5914 4.27652H4.6934L4.24804 2.68208C3.95835 1.64496 3.01334 0.927734 1.93652 0.927734H1.42417ZM6.75974 11.6896L4.96687 5.07652H16.5914C16.9866 5.07652 17.2739 5.45204 17.1705 5.83352L15.5828 11.6896C15.512 11.9511 15.2747 12.1326 15.0037 12.1326H7.33883C7.06793 12.1326 6.83063 11.9511 6.75974 11.6896Z" fill="#363A45"/>
<path d="M9.70022 16.0796C9.70022 16.8655 9.0624 17.5033 8.27484 17.5033C7.48729 17.5033 6.84946 16.8655 6.84946 16.0796C6.84946 15.2936 7.48729 14.6559 8.27484 14.6559C9.0624 14.6559 9.70022 15.2936 9.70022 16.0796Z" stroke="#363A45" stroke-width="0.8"/>
<path d="M15.4927 16.0796C15.4927 16.8655 14.8549 17.5033 14.0673 17.5033C13.2798 17.5033 12.6419 16.8655 12.6419 16.0796C12.6419 15.2936 13.2798 14.6559 14.0673 14.6559C14.8549 14.6559 15.4927 15.2936 15.4927 16.0796Z" stroke="#363A45" stroke-width="0.8"/>
</svg>
