<svg width="18" height="18" viewBox="0 0 18 18" fill="none" xmlns="http://www.w3.org/2000/svg">
<path fill-rule="evenodd" clip-rule="evenodd" d="M0.719824 0.154297C0.49891 0.154297 0.319824 0.333383 0.319824 0.554297C0.319824 0.775211 0.49891 0.954297 0.719824 0.954297H1.23217C1.95005 0.954297 2.58006 1.43245 2.77319 2.12386L5.01542 10.1513C5.02007 10.168 5.02571 10.1841 5.03225 10.1996L5.28327 11.1255C5.44867 11.7356 6.00237 12.1592 6.63449 12.1592H14.2994C14.9315 12.1592 15.4852 11.7356 15.6506 11.1255L17.2383 5.26941C17.4796 4.3793 16.8093 3.50308 15.887 3.50308H3.98905L3.54369 1.90865C3.254 0.87152 2.309 0.154297 1.23217 0.154297H0.719824ZM6.05539 10.9162L4.26252 4.30308H15.887C16.2823 4.30308 16.5696 4.6786 16.4661 5.06008L14.8785 10.9162C14.8076 11.1776 14.5703 11.3592 14.2994 11.3592H6.63449C6.36358 11.3592 6.12628 11.1776 6.05539 10.9162Z" fill="#363A45"/>
<path d="M8.996 15.3061C8.996 16.0921 8.35818 16.7299 7.57062 16.7299C6.78306 16.7299 6.14524 16.0921 6.14524 15.3061C6.14524 14.5202 6.78306 13.8824 7.57062 13.8824C8.35818 13.8824 8.996 14.5202 8.996 15.3061Z" stroke="#363A45" stroke-width="0.8"/>
<path d="M14.7885 15.3061C14.7885 16.0921 14.1507 16.7299 13.3631 16.7299C12.5755 16.7299 11.9377 16.0921 11.9377 15.3061C11.9377 14.5202 12.5755 13.8824 13.3631 13.8824C14.1507 13.8824 14.7885 14.5202 14.7885 15.3061Z" stroke="#363A45" stroke-width="0.8"/>
</svg>
