<svg width="18" height="12" viewBox="0 0 18 12" fill="none" xmlns="http://www.w3.org/2000/svg">
<mask id="path-1-inside-1_4680_6791" fill="white">
<path fill-rule="evenodd" clip-rule="evenodd" d="M0.998535 1.75549C0.998535 1.14193 1.49593 0.644531 2.1095 0.644531H11.8309C12.4445 0.644531 12.9419 1.14193 12.9419 1.75549V3.36941H15.6747C16.1097 3.36941 16.5046 3.62324 16.6853 4.01891L17.8982 6.6751C17.9643 6.81995 17.9985 6.97732 17.9985 7.13656V9.30946C17.9985 9.92303 17.5011 10.4204 16.8876 10.4204H12.3896V10.4196H2.1095C1.49593 10.4196 0.998535 9.92225 0.998535 9.30868V1.75549Z"/>
</mask>
<path d="M12.9419 3.36941H12.2419V4.06941H12.9419V3.36941ZM16.6853 4.01891L16.0485 4.30967L16.6853 4.01891ZM17.8982 6.6751L17.2614 6.96586L17.2614 6.96586L17.8982 6.6751ZM12.3896 10.4204H11.6896V11.1204H12.3896V10.4204ZM12.3896 10.4196H13.0896V9.71964H12.3896V10.4196ZM2.1095 -0.0554687C1.10933 -0.0554687 0.298535 0.755327 0.298535 1.75549H1.69854C1.69854 1.52853 1.88253 1.34453 2.1095 1.34453V-0.0554687ZM11.8309 -0.0554687H2.1095V1.34453H11.8309V-0.0554687ZM13.6419 1.75549C13.6419 0.755326 12.8311 -0.0554687 11.8309 -0.0554687V1.34453C12.0579 1.34453 12.2419 1.52853 12.2419 1.75549H13.6419ZM13.6419 3.36941V1.75549H12.2419V3.36941H13.6419ZM15.6747 2.6694H12.9419V4.06941H15.6747V2.6694ZM17.3221 3.72816C17.0275 3.08318 16.3837 2.6694 15.6747 2.6694V4.06941C15.8356 4.06941 15.9817 4.1633 16.0485 4.30967L17.3221 3.72816ZM18.5349 6.38435L17.3221 3.72816L16.0485 4.30967L17.2614 6.96586L18.5349 6.38435ZM18.6985 7.13656C18.6985 6.877 18.6427 6.62046 18.5349 6.38434L17.2614 6.96586C17.2859 7.01944 17.2985 7.07765 17.2985 7.13656H18.6985ZM18.6985 9.30946V7.13656H17.2985V9.30946H18.6985ZM16.8876 11.1204C17.8877 11.1204 18.6985 10.3096 18.6985 9.30946H17.2985C17.2985 9.53643 17.1145 9.72042 16.8876 9.72042V11.1204ZM12.3896 11.1204H16.8876V9.72042H12.3896V11.1204ZM11.6896 10.4196V10.4204H13.0896V10.4196H11.6896ZM2.1095 11.1196H12.3896V9.71964H2.1095V11.1196ZM0.298535 9.30868C0.298535 10.3088 1.10933 11.1196 2.1095 11.1196V9.71964C1.88253 9.71964 1.69854 9.53565 1.69854 9.30868H0.298535ZM0.298535 1.75549V9.30868H1.69854V1.75549H0.298535Z" fill="#363A45" mask="url(#path-1-inside-1_4680_6791)"/>
<path d="M15.4302 4.48438H13.5816C13.4589 4.48438 13.3594 4.58385 13.3594 4.70657V6.78567C13.3594 6.90839 13.4589 7.00786 13.5816 7.00786H16.4568C16.6186 7.00786 16.7262 6.84053 16.659 6.69338L15.7417 4.68455C15.686 4.56261 15.5643 4.48438 15.4302 4.48438Z" fill="#00C65E"/>
<path d="M11.8019 9.92748C11.8019 10.7534 12.4715 11.4229 13.2974 11.4229C14.1233 11.4229 14.7928 10.7534 14.7928 9.92748C14.7928 9.10157 14.1233 8.43203 13.2974 8.43203C12.4715 8.43203 11.8019 9.10157 11.8019 9.92748Z" fill="white" stroke="#363A45" stroke-width="0.7"/>
<path d="M13.2982 10.8513C12.7886 10.8513 12.3755 10.4382 12.3755 9.92858C12.3755 9.41898 12.7886 9.00586 13.2982 9.00586C13.8078 9.00586 14.2209 9.41898 14.2209 9.92858C14.2209 10.4382 13.8078 10.8513 13.2982 10.8513Z" fill="#00C65E"/>
<path d="M4.20451 9.92748C4.20451 10.7534 4.87405 11.4229 5.69996 11.4229C6.52587 11.4229 7.19541 10.7534 7.19541 9.92748C7.19541 9.10157 6.52587 8.43203 5.69996 8.43203C4.87405 8.43203 4.20451 9.10157 4.20451 9.92748Z" fill="white" stroke="#363A45" stroke-width="0.7"/>
<path d="M5.70081 10.8513C5.1912 10.8513 4.77809 10.4382 4.77809 9.92858C4.77809 9.41898 5.1912 9.00586 5.70081 9.00586C6.21042 9.00586 6.62354 9.41898 6.62354 9.92858C6.62354 10.4382 6.21042 10.8513 5.70081 10.8513Z" fill="#00C65E"/>
</svg>
