<svg width="20" height="18" viewBox="0 0 20 18" fill="none" xmlns="http://www.w3.org/2000/svg">
<g clip-path="url(#clip0_17_1543)">
<path d="M9.95329 3.32995L10.2888 3.84812L10.6247 3.33023C12.1401 0.993741 14.2662 0.52207 15.9936 1.18566C17.7465 1.859 19.1701 3.73126 19.1701 6.26055C19.1701 7.15144 18.6981 8.22616 17.9032 9.3879C17.1165 10.5377 16.0518 11.718 14.9505 12.8092C13.8509 13.8987 12.7244 14.8899 11.8197 15.6622C11.4948 15.9397 11.1998 16.1878 10.9442 16.4027C10.8436 16.4873 10.7492 16.5667 10.6614 16.6408C10.521 16.7593 10.3941 16.867 10.2868 16.9603C10.1744 16.8652 10.0411 16.7559 9.89387 16.6361C9.76723 16.5331 9.62815 16.4208 9.47743 16.299C9.24106 16.1081 8.97608 15.894 8.68564 15.6567C7.73982 14.8839 6.55841 13.8924 5.40376 12.8025C4.24725 11.7108 3.12804 10.5302 2.30072 9.38019C1.46395 8.21706 0.970068 7.14523 0.970068 6.26055C0.970068 3.72623 2.4896 1.84788 4.36005 1.17315C6.21182 0.505166 8.44668 1.00277 9.95329 3.32995Z" stroke="#363A45" stroke-width="0.8"/>
</g>
<defs>
<clipPath id="clip0_17_1543">
<rect width="19" height="17" fill="white" transform="translate(0.570068 0.5)"/>
</clipPath>
</defs>
</svg>
