<svg width="13" height="13" viewBox="0 0 13 13" fill="none" xmlns="http://www.w3.org/2000/svg">
<path fill-rule="evenodd" clip-rule="evenodd" d="M1.95605 12.2188C1.95605 12.2188 0.956055 12.2188 0.956055 11.2188C0.956055 10.2188 1.95605 7.21875 6.95605 7.21875C11.9561 7.21875 12.9561 10.2188 12.9561 11.2188C12.9561 12.2188 11.9561 12.2188 11.9561 12.2188H1.95605ZM6.95605 6.21875C7.7517 6.21875 8.51477 5.90268 9.07738 5.34007C9.63998 4.77746 9.95605 4.0144 9.95605 3.21875C9.95605 2.4231 9.63998 1.66004 9.07738 1.09743C8.51477 0.534821 7.7517 0.21875 6.95605 0.21875C6.16041 0.21875 5.39734 0.534821 4.83473 1.09743C4.27213 1.66004 3.95605 2.4231 3.95605 3.21875C3.95605 4.0144 4.27213 4.77746 4.83473 5.34007C5.39734 5.90268 6.16041 6.21875 6.95605 6.21875Z" fill="#00C65E"/>
</svg>
