<svg width="33" height="33" viewBox="0 0 33 33" fill="none" xmlns="http://www.w3.org/2000/svg">
<circle cx="16.5" cy="16.5" r="16.5" fill="white"/>
<path d="M21.1395 7.19141H11.8457C9.28954 7.19141 7.19141 9.28954 7.19141 11.8605V21.1543C7.19141 23.7105 9.28954 25.8086 11.8457 25.8086H21.1395C23.7105 25.8086 25.8086 23.7105 25.8086 21.1395V11.8605C25.8086 9.28954 23.7105 7.19141 21.1395 7.19141ZM18.9971 16.5H17.2388V22.2625H15.0224V16.5H13.8404V14.1359H14.8747V13.1312C14.8747 12.1855 15.3475 10.6932 17.3422 10.6932H19.1596V12.6584H17.8741C17.6673 12.6584 17.3865 12.7913 17.3865 13.2494V14.1359H19.2039L18.9971 16.5Z" fill="#00C65E"/>
<rect x="11" y="10" width="11" height="13" fill="#00C65E"/>
<path d="M16.5 20.9C17.667 20.9 18.7861 20.4364 19.6113 19.6113C20.4364 18.7861 20.9 17.667 20.9 16.5C20.9 15.333 20.4364 14.2139 19.6113 13.3887C18.7861 12.5636 17.667 12.1 16.5 12.1C15.333 12.1 14.2139 12.5636 13.3887 13.3887C12.5636 14.2139 12.1 15.333 12.1 16.5C12.1 17.667 12.5636 18.7861 13.3887 19.6113C14.2139 20.4364 15.333 20.9 16.5 20.9ZM16.5 22C13.4624 22 11 19.5377 11 16.5C11 13.4624 13.4624 11 16.5 11C19.5377 11 22 13.4624 22 16.5C22 19.5377 19.5377 22 16.5 22ZM14.7895 17.1435L13.4156 16.7151C13.1186 16.6243 13.117 16.4197 13.4822 16.2729L18.8353 14.2049C19.1461 14.0784 19.3221 14.2384 19.2214 14.6393L18.3101 18.9404C18.2463 19.2467 18.062 19.3199 17.8063 19.1785L16.4032 18.1401L15.7493 18.7715C15.6822 18.8364 15.6277 18.892 15.5243 18.9057C15.4214 18.92 15.3368 18.8892 15.2746 18.7187L14.7961 17.1397L14.7895 17.1435Z" fill="white"/>
</svg>
