<svg width="73" height="66" viewBox="0 0 73 66" fill="none" xmlns="http://www.w3.org/2000/svg">
<circle cx="35.5488" cy="33.4531" r="32.5" fill="#CCEFDB"/>
<path d="M0.0186157 16.0875C0.0186157 13.8322 1.84692 12.0039 4.10224 12.0039H50.5537C52.809 12.0039 54.6373 13.8322 54.6373 16.0875V49.4967H4.10225C1.84692 49.4967 0.0186157 47.6684 0.0186157 45.4131V16.0875Z" fill="#F89358"/>
<path fill-rule="evenodd" clip-rule="evenodd" d="M2.65808 17.7589C2.65808 15.616 4.39519 13.8789 6.53802 13.8789H50.6726C52.8154 13.8789 54.5525 15.616 54.5525 17.7588V23.8037H64.6212C66.1403 23.8037 67.5196 24.6902 68.1506 26.0721L72.6308 35.8838C72.8618 36.3897 72.9813 36.9393 72.9813 37.4954V45.6193C72.9813 47.7621 71.2442 49.4992 69.1014 49.4992H54.5525V49.5016H6.53802C4.39519 49.5016 2.65808 47.7645 2.65808 45.6217V17.7589Z" fill="#FFB762"/>
<path d="M64.9501 27.5547H58.146C57.7174 27.5547 57.37 27.9021 57.37 28.3307V35.9749C57.37 36.4034 57.7174 36.7508 58.146 36.7508H68.7104C69.2753 36.7508 69.6509 36.1664 69.4162 35.6525L66.0378 28.2538C65.8434 27.8279 65.4183 27.5547 64.9501 27.5547Z" fill="white"/>
<path d="M55.1413 54.9026C51.4271 54.9026 48.4161 51.8916 48.4161 48.1774C48.4161 44.4631 51.4271 41.4521 55.1413 41.4521C58.8556 41.4521 61.8666 44.4631 61.8666 48.1774C61.8666 51.8916 58.8556 54.9026 55.1413 54.9026Z" fill="white"/>
<path d="M55.142 51.5397C53.2849 51.5397 51.7794 50.0342 51.7794 48.1771C51.7794 46.3199 53.2849 44.8145 55.142 44.8145C56.9991 44.8145 58.5046 46.3199 58.5046 48.1771C58.5046 50.0342 56.9991 51.5397 55.142 51.5397Z" fill="#F89358"/>
<path d="M19.0914 54.9026C15.3771 54.9026 12.3661 51.8916 12.3661 48.1774C12.3661 44.4631 15.3771 41.4521 19.0914 41.4521C22.8056 41.4521 25.8166 44.4631 25.8166 48.1774C25.8166 51.8916 22.8056 54.9026 19.0914 54.9026Z" fill="white"/>
<path d="M19.0915 51.5397C17.2344 51.5397 15.7289 50.0342 15.7289 48.1771C15.7289 46.3199 17.2344 44.8145 19.0915 44.8145C20.9486 44.8145 22.4541 46.3199 22.4541 48.1771C22.4541 50.0342 20.9486 51.5397 19.0915 51.5397Z" fill="#F89358"/>
<path d="M28.2955 41V17.7273H43.4318V21.2614H32.5114V27.5795H42.6477V31.1136H32.5114V37.4659H43.5227V41H28.2955Z" fill="#00C65E"/>
</svg>
