<svg width="94" height="67" viewBox="0 0 94 67" fill="none" xmlns="http://www.w3.org/2000/svg">
<circle cx="47.7744" cy="33.4573" r="32.5" fill="#CCEFDB"/>
<path d="M31.832 22.3729C31.832 20.1176 33.6603 18.2893 35.9156 18.2893H73.79C76.0453 18.2893 77.8736 20.1176 77.8736 22.3729V49.8944H35.9156C33.6603 49.8944 31.832 48.0661 31.832 45.8108V22.3729Z" fill="#F89358"/>
<path fill-rule="evenodd" clip-rule="evenodd" d="M34.0573 23.7474C34.0573 21.6045 35.7944 19.8674 37.9372 19.8674H73.9225C76.0653 19.8674 77.8024 21.6045 77.8024 23.7474V28.2346H85.8971C87.4162 28.2346 88.7955 29.1211 89.4265 30.503L92.9854 38.2971C93.2164 38.803 93.336 39.3526 93.336 39.9087V46.0151C93.336 48.1579 91.5989 49.895 89.456 49.895H77.8024V49.8961H37.9372C35.7944 49.8961 34.0573 48.159 34.0573 46.0162V23.7474Z" fill="#FFB762"/>
<path d="M86.4464 31.3987H80.9534C80.5248 31.3987 80.1774 31.7461 80.1774 32.1747V38.3747C80.1774 38.8033 80.5248 39.1507 80.9534 39.1507H89.5473C90.1122 39.1507 90.4878 38.5663 90.2532 38.0524L87.5342 32.0978C87.3397 31.6719 86.9146 31.3987 86.4464 31.3987Z" fill="white"/>
<path d="M78.2986 54.4518C75.1677 54.4518 72.6295 51.9136 72.6295 48.7827C72.6295 45.6517 75.1677 43.1135 78.2986 43.1135C81.4296 43.1135 83.9678 45.6517 83.9678 48.7827C83.9678 51.9136 81.4296 54.4518 78.2986 54.4518Z" fill="white"/>
<path d="M78.2991 51.6191C76.7334 51.6191 75.4642 50.3499 75.4642 48.7843C75.4642 47.2187 76.7334 45.9495 78.2991 45.9495C79.8647 45.9495 81.1339 47.2187 81.1339 48.7843C81.1339 50.3499 79.8647 51.6191 78.2991 51.6191Z" fill="#F89358"/>
<path d="M47.91 54.4518C44.779 54.4518 42.2408 51.9136 42.2408 48.7827C42.2408 45.6517 44.779 43.1135 47.91 43.1135C51.0409 43.1135 53.5791 45.6517 53.5791 48.7827C53.5791 51.9136 51.0409 54.4518 47.91 54.4518Z" fill="white"/>
<path d="M47.9104 51.6191C46.3448 51.6191 45.0755 50.3499 45.0755 48.7843C45.0755 47.2187 46.3448 45.9495 47.9104 45.9495C49.476 45.9495 50.7452 47.2187 50.7452 48.7843C50.7452 50.3499 49.476 51.6191 47.9104 51.6191Z" fill="#F89358"/>
<path d="M55.5944 31.398H58.5995V38.2547H59.8913C62.7899 38.2547 64.2386 36.8464 64.2375 34.0297C64.2375 31.2706 62.8924 29.8915 60.2023 29.8925H59.6596V27.6604L60.0476 27.6604C62.3615 27.6604 64.1593 28.2157 65.4409 29.3262C66.7225 30.4367 67.3627 31.9828 67.3615 33.9646C67.3615 36.0746 66.6981 37.6899 65.3712 38.8105C64.0443 39.9311 62.1236 40.4949 59.6091 40.502H55.5944V31.398Z" fill="#00C65E"/>
<path d="M58.6015 27.6604H55.5944V30.3395H58.6015V27.6604Z" fill="#00C65E"/>
<path d="M10.7531 27.6565L21.7096 27.6565" stroke="#00C65E" stroke-width="2.44411" stroke-linecap="round"/>
<path d="M21.1306 32.2737L28.5539 32.2737" stroke="#FFB762" stroke-width="1.6294" stroke-linecap="round"/>
<path d="M1.91669 37.8752L19.6071 37.8751" stroke="#00C65E" stroke-width="2.44411" stroke-linecap="round"/>
<path d="M13.8737 44.5979L23.3556 44.5979" stroke="#FFB762" stroke-width="1.6294" stroke-linecap="round"/>
<path d="M62.4477 45.7856C68.9113 45.7856 74.151 40.5459 74.151 34.0824C74.151 27.6189 68.9113 22.3792 62.4477 22.3792C55.9842 22.3792 50.7445 27.6189 50.7445 34.0824C50.7445 40.5459 55.9842 45.7856 62.4477 45.7856Z" fill="#00C65E"/>
<path d="M62.4468 44.0249C67.9384 44.0249 72.3903 39.5731 72.3903 34.0814C72.3903 28.5898 67.9384 24.1379 62.4468 24.1379C56.9551 24.1379 52.5033 28.5898 52.5033 34.0814C52.5033 39.5731 56.9551 44.0249 62.4468 44.0249Z" fill="white"/>
<path d="M62.4467 44.1449C60.4562 44.1445 58.5105 43.5539 56.8557 42.4478C55.2008 41.3416 53.9112 39.7696 53.1497 37.9305C52.3883 36.0914 52.1892 34.0679 52.5778 32.1157C52.9664 30.1635 53.9251 28.3703 55.3327 26.963C56.7403 25.5557 58.5336 24.5973 60.4859 24.2091C62.4382 23.8209 64.4617 24.0204 66.3006 24.7822C68.1396 25.544 69.7113 26.834 70.8171 28.489C71.923 30.1441 72.5132 32.0899 72.5132 34.0804C72.51 36.749 71.4484 39.3075 69.5612 41.1943C67.674 43.0811 65.1153 44.1423 62.4467 44.1449ZM62.4467 24.2579C60.504 24.2579 58.6049 24.834 56.9896 25.9133C55.3743 26.9926 54.1153 28.5267 53.3719 30.3215C52.6285 32.1163 52.4339 34.0913 52.813 35.9967C53.192 37.902 54.1275 39.6522 55.5011 41.0259C56.8748 42.3996 58.625 43.3351 60.5304 43.7141C62.4358 44.0931 64.4108 43.8986 66.2056 43.1552C68.0004 42.4117 69.5345 41.1528 70.6138 39.5375C71.6931 37.9222 72.2692 36.0231 72.2692 34.0804C72.2671 31.4756 71.2316 28.978 69.3901 27.1358C67.5486 25.2935 65.0515 24.2571 62.4467 24.2539V24.2579Z" fill="white"/>
<path d="M62.442 34.8955C62.8869 34.8955 63.2476 34.5349 63.2476 34.09C63.2476 33.6451 62.8869 33.2844 62.442 33.2844C61.9971 33.2844 61.6365 33.6451 61.6365 34.09C61.6365 34.5349 61.9971 34.8955 62.442 34.8955Z" fill="#00C65E"/>
<path d="M62.8381 26.2075V25.2075C62.8381 24.9932 62.6644 24.8196 62.4502 24.8196C62.2359 24.8196 62.0623 24.9932 62.0623 25.2075V26.2075C62.0623 26.4217 62.2359 26.5954 62.4502 26.5954C62.6644 26.5954 62.8381 26.4217 62.8381 26.2075Z" fill="#00C65E"/>
<path d="M62.8308 42.9663V41.9663C62.8308 41.752 62.6572 41.5784 62.443 41.5784C62.2287 41.5784 62.0551 41.752 62.0551 41.9663V42.9663C62.0551 43.1805 62.2287 43.3542 62.443 43.3542C62.6572 43.3542 62.8308 43.1805 62.8308 42.9663Z" fill="#00C65E"/>
<path d="M54.561 33.6981H53.561C53.3468 33.6981 53.1731 33.8717 53.1731 34.086C53.1731 34.3002 53.3468 34.4739 53.561 34.4739H54.561C54.7752 34.4739 54.9489 34.3002 54.9489 34.086C54.9489 33.8717 54.7752 33.6981 54.561 33.6981Z" fill="#00C65E"/>
<path d="M71.3231 33.701H70.3231C70.1089 33.701 69.9352 33.8747 69.9352 34.0889C69.9352 34.3031 70.1089 34.4768 70.3231 34.4768H71.3231C71.5374 34.4768 71.711 34.3031 71.711 34.0889C71.711 33.8747 71.5374 33.701 71.3231 33.701Z" fill="#00C65E"/>
<path d="M62.9388 34.0878H61.9567L61.6888 28.2346H63.2067L62.9388 34.0878Z" fill="#00C65E"/>
<path d="M64.2367 27.9346C64.3538 28.0517 64.2709 28.2519 64.1053 28.2519H60.7884C60.6228 28.2519 60.5399 28.0517 60.657 27.9346L62.3154 26.2762C62.388 26.2036 62.5057 26.2036 62.5783 26.2762L64.2367 27.9346Z" fill="#00C65E"/>
<path d="M62.8988 34.4656L62.6622 34.0882L67.4727 30.7436L67.996 31.5743L62.8988 34.4656Z" fill="#00C65E"/>
<path d="M68.426 31.892C68.4015 31.9996 68.2591 32.0238 68.2003 31.9304L67.2375 30.3996C67.1787 30.3062 67.2622 30.1883 67.3698 30.2128L68.6174 30.496C68.6842 30.5111 68.726 30.5776 68.7107 30.6444L68.426 31.892Z" fill="#00C65E"/>
</svg>
