<svg width="80" height="86" viewBox="0 0 80 86" fill="none" xmlns="http://www.w3.org/2000/svg">
<circle cx="38.7744" cy="33.4573" r="32.5" fill="#CCEFDB"/>
<g filter="url(#filter0_d_1_988)">
<rect x="18.5376" y="22.8743" width="40.4742" height="46.0633" rx="0.782551" fill="white"/>
<rect x="24.6006" y="42.0217" width="1.72336" height="28.3494" rx="0.741751" transform="rotate(-90 24.6006 42.0217)" fill="#FD9558"/>
<rect x="24.6006" y="50.2913" width="1.72336" height="28.3494" rx="0.741751" transform="rotate(-90 24.6006 50.2913)" fill="#FD9558"/>
<rect x="24.6006" y="58.5647" width="1.72336" height="28.3494" rx="0.741751" transform="rotate(-90 24.6006 58.5647)" fill="#FD9558"/>
</g>
<path d="M38.977 10.7427C37.6092 10.7186 36.0633 9.29241 34.8251 9.66899C33.5868 10.0456 33.0688 12.1128 31.9923 12.874C30.9159 13.6352 28.7954 13.3588 27.9982 14.4124C27.201 15.466 28.0347 17.385 27.5936 18.639C27.1525 19.8929 25.3112 20.8625 25.2869 22.2126C25.2627 23.5627 27.0918 24.6404 27.4722 25.8663C27.8526 27.0922 26.9744 29.0432 27.715 30.1089C28.4555 31.1746 30.5962 30.9983 31.6565 31.7875C32.7167 32.5767 33.1052 34.64 34.3759 35.0726C35.6465 35.5053 37.2086 34.1151 38.5642 34.1392C39.9199 34.1632 41.4738 35.5894 42.7283 35.2129C43.9828 34.8363 44.4805 32.769 45.561 32.0079C46.6415 31.2467 48.7579 31.5231 49.5672 30.4735C50.3766 29.4238 49.5308 27.5008 49.9719 26.2469C50.413 24.9929 52.2381 24.0274 52.2624 22.6653C52.2866 21.3031 50.4575 20.2375 50.0771 19.0116C49.6967 17.7857 50.5789 15.8386 49.8222 14.773C49.0655 13.7073 46.9409 13.8836 45.8807 13.0943C44.8204 12.3051 44.432 10.2379 43.1613 9.80921C41.8906 9.38054 40.3407 10.7667 38.977 10.7427Z" fill="#00C65E"/>
<path d="M38.9532 12.0447C37.7392 12.0447 36.3633 10.7547 35.2626 11.0872C34.1619 11.4198 33.7005 13.2586 32.7455 13.9237C31.7905 14.5887 29.9128 14.3684 29.1925 15.3018C28.4722 16.2353 29.2249 17.946 28.8364 19.0597C28.4479 20.1734 26.813 21.0428 26.7806 22.2647C26.7483 23.4866 28.3993 24.4201 28.7271 25.5138C29.0549 26.6075 28.282 28.3181 28.9537 29.2796C29.6255 30.2411 31.5153 30.0809 32.4582 30.778C33.4011 31.4751 33.745 33.3139 34.8862 33.6985C36.0274 34.0831 37.383 32.8452 38.5971 32.8452C39.8111 32.8452 41.187 34.1352 42.2877 33.8027C43.3884 33.4702 43.8497 31.6433 44.8047 30.9623C45.7597 30.2812 47.6374 30.5216 48.3577 29.5881C49.0781 28.6547 48.3294 26.944 48.7139 25.8262C49.0983 24.7085 50.7372 23.8472 50.7696 22.6453C50.802 21.4434 49.1509 20.4859 48.8272 19.3962C48.5034 18.3065 49.2683 16.5918 48.5965 15.6263C47.9247 14.6608 46.039 14.8251 45.0961 14.132C44.1532 13.4389 43.8052 11.6121 42.6883 11.2114C41.5714 10.8108 40.1672 12.0648 38.9532 12.0447Z" fill="#CCE6D6"/>
<path d="M41.089 22.2195C41.2483 22.2992 41.4024 22.3888 41.5503 22.4879C41.7638 22.6253 41.9595 22.7881 42.133 22.9727C42.3264 23.2 42.4808 23.4571 42.5903 23.7339C42.734 24.0695 42.8057 24.431 42.8007 24.7955C42.8002 25.2271 42.7013 25.6529 42.5114 26.0414C42.3215 26.4298 42.0455 26.7708 41.7041 27.039C40.8902 27.696 39.8595 28.0314 38.8107 27.9805C38.3157 27.9826 37.8224 27.9247 37.3417 27.8082C36.9401 27.7244 36.5512 27.5897 36.1843 27.4076C35.9136 27.2556 35.6528 27.087 35.4033 26.9028C35.2222 26.7828 35.0576 26.6401 34.9137 26.4782L34.7558 26.3059L36.1317 24.8716L36.2288 24.9918C36.3248 25.0897 36.4275 25.1807 36.5364 25.2643C36.6945 25.3948 36.8637 25.5114 37.0422 25.6128C37.5132 25.8708 38.0417 26.0085 38.58 26.0134C39.069 26.0406 39.5524 25.899 39.9478 25.6128C40.0985 25.498 40.2199 25.3497 40.3022 25.1799C40.3844 25.0101 40.4252 24.8235 40.4212 24.6353C40.4257 24.4473 40.3855 24.261 40.304 24.0912C40.2225 23.9215 40.1018 23.773 39.9518 23.6578C39.5833 23.3767 39.1256 23.2346 38.6609 23.2571H37.5117V21.3822H38.58C38.969 21.4023 39.3511 21.2748 39.6483 21.0256C39.7805 20.9087 39.8853 20.7646 39.9552 20.6033C40.0251 20.4421 40.0585 20.2676 40.053 20.0922C40.0569 19.9258 40.0224 19.7607 39.9523 19.6093C39.8822 19.458 39.7783 19.3245 39.6483 19.2188C39.3483 18.9757 38.9671 18.8528 38.58 18.8743C38.1995 18.8722 37.8239 18.9586 37.4833 19.1267C37.2117 19.2507 36.9628 19.4186 36.7468 19.6235L36.5162 19.8678L35.1362 18.5057C35.1686 18.4657 35.2131 18.4096 35.2738 18.3415C35.4056 18.1967 35.5491 18.0627 35.7028 17.9408C35.9287 17.7557 36.1727 17.5933 36.4312 17.4561C37.1726 17.0983 37.9859 16.9107 38.8107 16.9072C39.7574 16.861 40.6882 17.162 41.4248 17.7525C41.7388 18.0078 41.9906 18.3298 42.1615 18.6946C42.3325 19.0594 42.4182 19.4577 42.4122 19.8598C42.4156 20.1586 42.3606 20.4551 42.2504 20.7332C42.1642 20.97 42.0384 21.1908 41.8781 21.3862C41.7435 21.5411 41.5959 21.6845 41.437 21.8149C41.3123 21.9129 41.1765 21.9963 41.0323 22.0633L40.8826 22.1354L41.089 22.2195Z" fill="white"/>
<defs>
<filter id="filter0_d_1_988" x="0.537598" y="5.87427" width="78.4742" height="84.0632" filterUnits="userSpaceOnUse" color-interpolation-filters="sRGB">
<feFlood flood-opacity="0" result="BackgroundImageFix"/>
<feColorMatrix in="SourceAlpha" type="matrix" values="0 0 0 0 0 0 0 0 0 0 0 0 0 0 0 0 0 0 127 0" result="hardAlpha"/>
<feMorphology radius="3" operator="dilate" in="SourceAlpha" result="effect1_dropShadow_1_988"/>
<feOffset dx="1" dy="2"/>
<feGaussianBlur stdDeviation="8"/>
<feColorMatrix type="matrix" values="0 0 0 0 0.211765 0 0 0 0 0.227451 0 0 0 0 0.270588 0 0 0 0.08 0"/>
<feBlend mode="normal" in2="BackgroundImageFix" result="effect1_dropShadow_1_988"/>
<feBlend mode="normal" in="SourceGraphic" in2="effect1_dropShadow_1_988" result="shape"/>
</filter>
</defs>
</svg>
