<svg width="77" height="66" viewBox="0 0 77 66" fill="none" xmlns="http://www.w3.org/2000/svg">
<circle cx="38.7744" cy="33.4573" r="32.5" fill="#CCEFDB"/>
<path d="M47.9398 11.4974C48.7138 10.7261 49.8227 10.3938 50.8933 10.6124L68.1675 14.1398C69.2375 14.3583 70.127 15.0981 70.5369 16.1103L73.4255 23.243C73.9072 24.4325 74.0271 25.7376 73.7704 26.9949L67.3708 58.3343C67.0106 60.0983 65.2885 61.2364 63.5244 60.8761L36.8402 55.4272C35.0762 55.0669 33.9381 53.3449 34.2984 51.5808L40.6961 20.2503C40.9526 18.9941 41.5738 17.8414 42.4819 16.9364L47.9398 11.4974Z" fill="#FFB762"/>
<path d="M1.53672 18.2152C1.61946 17.1257 2.24255 16.15 3.19623 15.6167L18.5842 7.01147C19.5374 6.47845 20.6941 6.45808 21.6654 6.95722L28.51 10.4745C29.6514 11.061 30.5944 11.9713 31.2207 13.0913L46.8326 41.0087C47.7114 42.5801 47.1499 44.5664 45.5784 45.4452L21.8079 58.7381C20.2365 59.6169 18.2502 59.0554 17.3714 57.4839L1.76389 29.5745C1.13811 28.4555 0.856135 27.1768 0.953224 25.8984L1.53672 18.2152Z" fill="#F89358"/>
<path d="M19.7682 29.5297C19.5899 30.1475 19.2908 30.7239 18.8884 31.2254C18.4859 31.727 17.988 32.1438 17.4235 32.4517C16.8589 32.7597 16.239 32.9526 15.5994 33.0195C14.9598 33.0863 14.3133 33.0257 13.6973 32.8412C13.0945 32.6893 12.5297 32.4143 12.0383 32.0336C11.5469 31.6529 11.1396 31.1746 10.8419 30.6289C10.5442 30.0832 10.3627 29.4818 10.3086 28.8625C10.2545 28.2433 10.3292 27.6195 10.5278 27.0305C10.7061 26.4126 11.0051 25.8363 11.4076 25.3347C11.81 24.8332 12.3079 24.4164 12.8725 24.1084C13.437 23.8005 14.057 23.6075 14.6966 23.5407C15.3361 23.4738 15.9826 23.5345 16.5986 23.719C17.2014 23.8709 17.7663 24.1459 18.2576 24.5266C18.749 24.9073 19.1564 25.3855 19.454 25.9313C19.7517 26.477 19.9333 27.0784 19.9874 27.6976C20.0414 28.3169 19.9668 28.9407 19.7682 29.5297ZM24.4721 21.6749C24.7128 21.5557 24.9807 21.5019 25.2488 21.519C25.517 21.5361 25.7758 21.6234 25.9995 21.7722C26.2232 21.921 26.4038 22.126 26.5232 22.3667C26.6426 22.6074 26.6966 22.8752 26.6797 23.1433L25.4874 43.2897C25.4702 43.5473 25.3875 43.7962 25.2473 44.013C25.1071 44.2297 24.914 44.4072 24.6862 44.5286C24.4469 44.6498 24.1797 44.7054 23.9119 44.6899C23.6441 44.6743 23.3852 44.5881 23.1615 44.44C22.9378 44.292 22.7573 44.0873 22.6384 43.8468C22.5195 43.6063 22.4664 43.3386 22.4845 43.071L23.731 22.895C23.744 22.6462 23.8185 22.4045 23.9478 22.1916C24.0772 21.9787 24.2573 21.8011 24.4721 21.6749ZM14.5655 30.2295C15.083 30.371 15.6352 30.3065 16.1062 30.0496C16.5771 29.7927 16.9303 29.3634 17.0915 28.8517C17.2025 28.4677 17.1974 28.0594 17.0768 27.6782C16.9562 27.2971 16.7255 26.9602 16.4137 26.71C16.102 26.4597 15.7232 26.3073 15.325 26.272C14.9268 26.2366 14.5271 26.3199 14.1761 26.5113C13.8252 26.7028 13.5388 26.9938 13.3529 27.3477C13.1671 27.7016 13.0901 28.1026 13.1318 28.5002C13.1734 28.8978 13.3318 29.2741 13.5869 29.5819C13.8421 29.8896 14.1826 30.1149 14.5655 30.2295ZM29.3586 36.7191C29.5376 36.1004 29.8375 35.5233 30.2407 35.0212C30.644 34.519 31.1428 34.1016 31.7082 33.7932C32.2736 33.4848 32.8945 33.2914 33.5351 33.2242C34.1756 33.157 34.8232 33.2173 35.4403 33.4017C36.0401 33.5585 36.6016 33.8364 37.09 34.2183C37.5785 34.6001 37.9836 35.0779 38.2805 35.6222C38.5774 36.1665 38.7598 36.7658 38.8164 37.3833C38.8731 38.0007 38.8028 38.6232 38.6098 39.2124C38.4307 39.8311 38.1309 40.4082 37.7276 40.9103C37.3244 41.4125 36.8256 41.8299 36.2602 42.1383C35.6948 42.4467 35.0739 42.6401 34.4333 42.7073C33.7927 42.7745 33.1452 42.7142 32.5281 42.5298C31.9282 42.373 31.3668 42.0951 30.8784 41.7132C30.3899 41.3314 29.9848 40.8536 29.6879 40.3093C29.391 39.765 29.2086 39.1657 29.1519 38.5482C29.0953 37.9308 29.1656 37.3083 29.3586 36.7191ZM34.5819 35.9799C34.0647 35.8477 33.5166 35.9164 33.048 36.172C32.5793 36.4276 32.2249 36.8513 32.056 37.3577C31.9349 37.8742 32.0238 38.4176 32.3034 38.8685C32.4176 39.1234 32.5832 39.3519 32.79 39.5396C32.9967 39.7274 33.24 39.8703 33.5047 39.9595C33.7693 40.0487 34.0495 40.0822 34.3278 40.0579C34.606 40.0336 34.8761 39.952 35.1213 39.8183C35.3665 39.6846 35.5813 39.5016 35.7524 39.2808C35.9234 39.0601 36.047 38.8063 36.1153 38.5355C36.1835 38.2647 36.1951 37.9828 36.1491 37.7073C36.1032 37.4318 36.0008 37.1688 35.8483 36.9349C35.7153 36.6978 35.5354 36.4903 35.3195 36.3251C35.1036 36.1599 34.8563 36.0404 34.5927 35.974L34.5819 35.9799Z" fill="white"/>
<circle cx="55.2743" cy="36.1509" r="9.47183" transform="rotate(-8.85648 55.2743 36.1509)" fill="white"/>
<path d="M76.4108 23.6341C75.9729 22.9197 75.2693 22.4083 74.4547 22.2122C73.64 22.016 72.7808 22.1512 72.0657 22.588L56.8157 32.0381L54.7888 26.4534C54.4712 25.7056 53.8781 25.1088 53.1324 24.7865C52.3867 24.4642 51.5456 24.4412 50.7834 24.7223C50.0212 25.0034 49.3964 25.567 49.0385 26.2963C48.6806 27.0256 48.617 27.8646 48.861 28.6395L52.1247 37.4521C52.1952 37.7991 52.3291 38.1302 52.5196 38.4286C52.9069 39.0568 53.5066 39.5252 54.2098 39.7488C54.718 39.9367 55.2674 39.9847 55.8005 39.8877C56.3336 39.7907 56.8309 39.5524 57.2405 39.1975L75.3697 27.9881C76.0842 27.548 76.5951 26.8425 76.7902 26.0263C76.9854 25.2101 76.8489 24.3499 76.4108 23.6341Z" fill="#00C65E"/>
</svg>
