<svg width="66" height="66" viewBox="0 0 66 66" fill="none" xmlns="http://www.w3.org/2000/svg">
<circle cx="32.7744" cy="33.4573" r="32.5" fill="#CCEFDB"/>
<path d="M42.6856 21.1682H21.105C20.0122 21.1682 19.1263 22.0541 19.1263 23.1469V43.8746C19.1263 44.9674 20.0122 45.8533 21.105 45.8533H42.6856C43.7784 45.8533 44.6644 44.9674 44.6644 43.8746V23.1469C44.6644 22.0541 43.7784 21.1682 42.6856 21.1682Z" fill="#FFB762"/>
<path d="M34.8169 20.7532H28.9735V25.0431C28.9735 25.4074 29.2688 25.7027 29.633 25.7027H34.1574C34.5216 25.7027 34.8169 25.4074 34.8169 25.0431V20.7532Z" fill="#F89358"/>
<path d="M42.0953 26.3977H37.3655C37.0012 26.3977 36.7059 26.693 36.7059 27.0573V28.5119C36.7059 28.8762 37.0012 29.1715 37.3655 29.1715H42.0953C42.4595 29.1715 42.7548 28.8762 42.7548 28.5119V27.0573C42.7548 26.693 42.4595 26.3977 42.0953 26.3977Z" fill="white"/>
<path d="M42.3852 41.304H33.7761C33.5719 41.304 33.4065 41.4694 33.4065 41.6736C33.4065 41.8777 33.5719 42.0432 33.7761 42.0432H42.3852C42.5893 42.0432 42.7548 41.8777 42.7548 41.6736C42.7548 41.4694 42.5893 41.304 42.3852 41.304Z" fill="#F89358"/>
<path d="M42.3855 38.0901H36.7177C36.5136 38.0901 36.3481 38.2556 36.3481 38.4597C36.3481 38.6638 36.5136 38.8293 36.7177 38.8293H42.3855C42.5897 38.8293 42.7552 38.6638 42.7552 38.4597C42.7552 38.2556 42.5897 38.0901 42.3855 38.0901Z" fill="#F89358"/>
<path d="M42.385 34.8694H39.1963C38.9922 34.8694 38.8267 35.0349 38.8267 35.239C38.8267 35.4431 38.9922 35.6086 39.1963 35.6086H42.385C42.5891 35.6086 42.7546 35.4431 42.7546 35.239C42.7546 35.0349 42.5891 34.8694 42.385 34.8694Z" fill="#F89358"/>
<path d="M41.1253 7.10365C41.7488 7.57933 41.6971 8.53363 41.0259 8.93921L34.6266 12.806C33.8624 13.2678 32.8931 12.6859 32.9414 11.7943L33.3963 3.39236C33.4446 2.50078 34.471 2.02692 35.1809 2.56851L41.1253 7.10365Z" fill="#00C65E"/>
<path d="M37.5407 8.07459C36.3635 7.81201 35.1807 7.63433 34.0001 7.53846C23.1266 6.65552 12.4328 12.7118 7.91545 23.2979C2.62722 35.6903 7.67717 49.8987 19.1998 56.3029" stroke="#00C65E" stroke-width="3.71929" stroke-linecap="round"/>
<path d="M24.4234 59.8129C23.7999 59.3372 23.8516 58.3829 24.5228 57.9773L30.922 54.1105C31.6862 53.6487 32.6555 54.2306 32.6073 55.1222L32.1524 63.5241C32.1041 64.4157 31.0776 64.8896 30.3678 64.348L24.4234 59.8129Z" fill="#00C65E"/>
<path d="M28.008 58.8419C29.1852 59.1045 30.3679 59.2822 31.5486 59.378C42.422 60.261 53.1158 54.2047 57.6332 43.6187C62.9215 31.2262 57.8715 17.0178 46.3489 10.6136" stroke="#00C65E" stroke-width="3.71929" stroke-linecap="round"/>
</svg>
