<svg width="608" height="239" viewBox="0 0 608 239" fill="none" xmlns="http://www.w3.org/2000/svg">
<g filter="url(#filter0_d_1652_36049)">
<g clip-path="url(#clip0_1652_36049)">
<g filter="url(#filter1_d_1652_36049)">
<path d="M588 206.996C588 212.519 583.523 216.996 578 216.996H303H28C22.4772 216.996 18 212.519 18 206.996V26.9961C18 21.4733 22.4772 16.9961 28 16.9961H303H578C583.523 16.9961 588 21.4733 588 26.9961V206.996Z" fill="#00C65E"/>
<path d="M53.7852 57.3164H50.1758V74.1211H53.7852V69.3164L55.9414 66.9258L60.8633 74.1211H65.0586L58.3438 64.2773L64.5781 57.3164H60.3828L53.7852 64.6406V57.3164ZM77.6562 69.3164L77.7734 68.0039C77.7734 66.3281 77.2109 64.9336 76.0977 63.8086C74.9727 62.6836 73.5781 62.1211 71.9023 62.1211C70.2148 62.1211 68.7734 62.7305 67.5781 63.9258C66.3711 65.1211 65.7734 66.5625 65.7734 68.2383C65.7734 69.9258 66.3828 71.3672 67.6016 72.5625C68.8203 73.7578 70.2852 74.3555 72.0195 74.3555C72.6289 74.3555 73.2148 74.2852 73.7891 74.1445C74.3633 74.0039 74.832 73.8516 75.1953 73.6641C75.5469 73.4766 75.8867 73.2656 76.2148 73.0312C76.5312 72.7969 76.7422 72.6328 76.8359 72.5391L77.0586 72.3164L75.3828 70.1602L75.043 70.5234C74.832 70.7695 74.457 71.0156 73.9414 71.25C73.4258 71.4844 72.8633 71.6016 72.2539 71.6016C71.4102 71.6016 70.707 71.3906 70.1562 70.9453C69.5938 70.5 69.2539 69.9609 69.1367 69.3164H77.6562ZM71.9023 64.8867C72.582 64.8867 73.168 65.0977 73.6367 65.4961C74.1055 65.9062 74.4102 66.4219 74.5391 67.043H69.1367C69.3242 66.4102 69.6641 65.8828 70.1445 65.4844C70.625 65.0859 71.2109 64.8867 71.9023 64.8867ZM80.1875 74.1211H96.3828V62.3555H93.1484V71.2383H89.9023V62.3555H86.668V71.2383H83.4219V62.3555H80.1875V74.1211ZM111.266 68.4844C111.266 66.8906 110.703 65.5078 109.59 64.3477C108.477 63.1875 107.199 62.6016 105.746 62.6016C105.336 62.6016 104.938 62.6719 104.551 62.7891C104.152 62.9062 103.836 63.0469 103.578 63.1992C103.32 63.3516 103.086 63.5273 102.863 63.7148C102.629 63.9023 102.488 64.0312 102.418 64.1016C102.348 64.1719 102.289 64.2305 102.266 64.2773C102.43 63.3164 102.84 62.5195 103.484 61.875C104.117 61.2305 104.949 60.7969 105.98 60.5625C107.105 60.3047 108.078 60.0352 108.875 59.7305C109.672 59.4375 110.152 59.2383 110.316 59.1328C110.48 59.0391 110.586 58.957 110.656 58.8867L109.227 56.4844L108.816 56.6953C108.535 56.8359 108.055 57 107.352 57.2109C106.648 57.4219 105.863 57.6211 105.02 57.7969C103.098 58.1953 101.609 59.0859 100.578 60.4805C99.5352 61.8867 99.0195 63.9492 99.0195 66.6797C99.0195 69.1289 99.5938 71.0156 100.754 72.3516C101.914 73.6875 103.461 74.3555 105.383 74.3555C107.094 74.3555 108.5 73.793 109.602 72.6562C110.703 71.5312 111.266 70.1367 111.266 68.4844ZM102.617 68.4844C102.617 67.6055 102.875 66.8906 103.414 66.3281C103.941 65.7656 104.598 65.4844 105.383 65.4844C106.109 65.4844 106.73 65.7656 107.246 66.3281C107.762 66.8906 108.02 67.6055 108.02 68.4844C108.02 69.3633 107.762 70.0781 107.246 70.6406C106.73 71.2031 106.109 71.4844 105.383 71.4844C104.598 71.4844 103.941 71.2031 103.414 70.6406C102.875 70.0781 102.617 69.3633 102.617 68.4844ZM125.07 69.3164L125.188 68.0039C125.188 66.3281 124.625 64.9336 123.512 63.8086C122.387 62.6836 120.992 62.1211 119.316 62.1211C117.629 62.1211 116.188 62.7305 114.992 63.9258C113.785 65.1211 113.188 66.5625 113.188 68.2383C113.188 69.9258 113.797 71.3672 115.016 72.5625C116.234 73.7578 117.699 74.3555 119.434 74.3555C120.043 74.3555 120.629 74.2852 121.203 74.1445C121.777 74.0039 122.246 73.8516 122.609 73.6641C122.961 73.4766 123.301 73.2656 123.629 73.0312C123.945 72.7969 124.156 72.6328 124.25 72.5391L124.473 72.3164L122.797 70.1602L122.457 70.5234C122.246 70.7695 121.871 71.0156 121.355 71.25C120.84 71.4844 120.277 71.6016 119.668 71.6016C118.824 71.6016 118.121 71.3906 117.57 70.9453C117.008 70.5 116.668 69.9609 116.551 69.3164H125.07ZM119.316 64.8867C119.996 64.8867 120.582 65.0977 121.051 65.4961C121.52 65.9062 121.824 66.4219 121.953 67.043H116.551C116.738 66.4102 117.078 65.8828 117.559 65.4844C118.039 65.0859 118.625 64.8867 119.316 64.8867ZM138.758 62.3555H135.043L130.836 67.1602V62.3555H127.602V74.1211H130.836V71.2383L132.277 69.5625L135.395 74.1211H139.004L134.316 67.4062L138.758 62.3555ZM153.758 65.6016C153.758 64.6641 153.336 63.8438 152.504 63.1523C151.672 62.4727 150.57 62.1211 149.199 62.1211C148.625 62.1211 148.074 62.1914 147.535 62.332C146.996 62.4727 146.562 62.625 146.246 62.7891C145.918 62.9531 145.625 63.1523 145.344 63.375C145.062 63.5977 144.887 63.75 144.805 63.8438C144.723 63.9375 144.664 63.9961 144.641 64.043L146.445 65.8359L146.75 65.5781C146.961 65.3906 147.266 65.2031 147.664 65.0273C148.062 64.8516 148.461 64.7578 148.848 64.7578C149.879 64.7695 150.406 65.168 150.406 65.9648C150.406 66.293 150.266 66.5508 150.008 66.75C149.75 66.9492 149.363 67.043 148.848 67.043H147.641V69.1992H148.848C150.113 69.2109 150.758 69.6094 150.758 70.4062C150.758 70.793 150.594 71.1094 150.266 71.3555C149.938 71.6016 149.469 71.7188 148.848 71.7188C148.309 71.7188 147.805 71.6016 147.324 71.3555C146.844 71.1094 146.527 70.9102 146.387 70.7695C146.246 70.6289 146.141 70.5 146.082 70.4062L144.277 72.1992L144.477 72.4453C144.582 72.5859 144.77 72.7617 145.051 72.9727C145.32 73.1836 145.637 73.3828 146 73.5938C146.375 73.8047 146.844 73.9922 147.406 74.1328C147.969 74.2852 148.566 74.3555 149.188 74.3555C150.793 74.3555 152.035 74.0273 152.914 73.3477C153.793 72.668 154.227 71.8477 154.227 70.8867C154.227 70.4531 154.145 70.0547 153.969 69.7031C153.793 69.3516 153.605 69.082 153.395 68.8828C153.184 68.6836 152.949 68.5078 152.668 68.3672C152.398 68.2266 152.211 68.1328 152.094 68.0859C151.988 68.0508 151.906 68.0273 151.836 68.0156L152.023 67.9453C152.152 67.9102 152.316 67.8281 152.516 67.7109C152.703 67.5938 152.902 67.4414 153.09 67.2773C153.277 67.1133 153.441 66.8789 153.57 66.5859C153.688 66.2812 153.758 65.9531 153.758 65.6016ZM163.121 74.1211H166.355V66.7969C166.355 65.4609 165.887 64.3477 164.949 63.457C164.012 62.5664 162.793 62.1211 161.316 62.1211C160.742 62.1211 160.18 62.2148 159.629 62.3789C159.09 62.543 158.645 62.7305 158.305 62.9297C157.977 63.1289 157.66 63.3516 157.379 63.6094C157.098 63.8672 156.91 64.0547 156.828 64.1602C156.746 64.2656 156.676 64.3477 156.629 64.4062L158.422 66.1992L158.691 65.918C158.879 65.707 159.184 65.5078 159.617 65.3086C160.062 65.1094 160.543 65.0039 161.07 65.0039C161.715 65.0039 162.219 65.168 162.57 65.4727C162.934 65.7891 163.109 66.1875 163.109 66.6797L159.383 67.3477C158.305 67.5469 157.449 67.9688 156.828 68.6016C156.219 69.2461 155.902 70.043 155.902 71.0039C155.902 71.9414 156.277 72.7266 157.004 73.3828C157.742 74.0391 158.691 74.3555 159.863 74.3555C160.473 74.3555 161.059 74.2266 161.621 73.9688C162.184 73.7109 162.559 73.5 162.723 73.3359C162.887 73.1719 163.016 73.043 163.109 72.9258L163.121 74.1211ZM160.707 71.7188C159.676 71.7188 159.148 71.3203 159.148 70.5234C159.148 69.7852 159.594 69.3398 160.473 69.1992L163.109 68.7188V69.082C163.109 69.9141 162.898 70.5586 162.465 71.0273C162.031 71.4961 161.445 71.7188 160.707 71.7188ZM175.602 62.3555V65.6016C175.602 67.2422 175.508 68.4844 175.344 69.3398C175.18 70.1953 174.957 70.7461 174.688 70.9922C174.406 71.2383 174.031 71.3555 173.562 71.3555C173.328 71.3555 173.082 71.3203 172.848 71.2383V74.1211L173.059 74.2148C173.188 74.2617 173.387 74.3203 173.668 74.3906C173.949 74.4609 174.23 74.4844 174.523 74.4844C175.414 74.4844 176.152 74.2617 176.738 73.8164C177.324 73.3711 177.793 72.4922 178.168 71.2031C178.543 69.9141 178.73 68.168 178.73 65.9766V65.25H181.848V74.1328H185.082V62.3672L175.602 62.3555ZM205.367 68.2383C205.367 66.5625 204.758 65.1211 203.562 63.9258C202.367 62.7305 200.926 62.1328 199.25 62.1328C197.75 62.1328 196.449 62.6016 195.324 63.5508C194.199 64.5 193.508 65.5898 193.25 66.8086H191.445V62.3672H188.211V74.1328H191.445V69.6914H193.25C193.508 70.9102 194.199 71.9883 195.324 72.9375C196.449 73.8867 197.762 74.3672 199.25 74.3672C200.926 74.3672 202.367 73.7578 203.562 72.5625C204.758 71.3672 205.367 69.9258 205.367 68.2383ZM202.133 68.25C202.133 69.1875 201.852 69.9727 201.289 70.582C200.727 71.1914 200.047 71.4961 199.25 71.4961C198.453 71.4961 197.773 71.1914 197.211 70.582C196.648 69.9727 196.367 69.1875 196.367 68.25C196.367 67.3008 196.648 66.5273 197.211 65.918C197.773 65.3086 198.453 65.0156 199.25 65.0156C200.047 65.0156 200.727 65.3086 201.289 65.918C201.852 66.5273 202.133 67.3008 202.133 68.25ZM219.781 68.4844C219.781 66.8906 219.219 65.5078 218.105 64.3477C216.992 63.1875 215.715 62.6016 214.262 62.6016C213.852 62.6016 213.453 62.6719 213.066 62.7891C212.668 62.9062 212.352 63.0469 212.094 63.1992C211.836 63.3516 211.602 63.5273 211.379 63.7148C211.145 63.9023 211.004 64.0312 210.934 64.1016C210.863 64.1719 210.805 64.2305 210.781 64.2773C210.945 63.3164 211.355 62.5195 212 61.875C212.633 61.2305 213.465 60.7969 214.496 60.5625C215.621 60.3047 216.594 60.0352 217.391 59.7305C218.188 59.4375 218.668 59.2383 218.832 59.1328C218.996 59.0391 219.102 58.957 219.172 58.8867L217.742 56.4844L217.332 56.6953C217.051 56.8359 216.57 57 215.867 57.2109C215.164 57.4219 214.379 57.6211 213.535 57.7969C211.613 58.1953 210.125 59.0859 209.094 60.4805C208.051 61.8867 207.535 63.9492 207.535 66.6797C207.535 69.1289 208.109 71.0156 209.27 72.3516C210.43 73.6875 211.977 74.3555 213.898 74.3555C215.609 74.3555 217.016 73.793 218.117 72.6562C219.219 71.5312 219.781 70.1367 219.781 68.4844ZM211.133 68.4844C211.133 67.6055 211.391 66.8906 211.93 66.3281C212.457 65.7656 213.113 65.4844 213.898 65.4844C214.625 65.4844 215.246 65.7656 215.762 66.3281C216.277 66.8906 216.535 67.6055 216.535 68.4844C216.535 69.3633 216.277 70.0781 215.762 70.6406C215.246 71.2031 214.625 71.4844 213.898 71.4844C213.113 71.4844 212.457 71.2031 211.93 70.6406C211.391 70.0781 211.133 69.3633 211.133 68.4844ZM225.184 74.8359C224.797 75.7266 224.117 76.1602 223.145 76.1602C222.664 76.1602 222.266 76.0898 221.949 75.9258V78.7969L222.184 78.8789C222.348 78.9492 222.594 79.0078 222.945 79.0664C223.285 79.1367 223.637 79.1602 223.988 79.1602C225.957 79.1602 227.469 77.7188 228.547 74.8359L233.223 62.3555H229.871L227.105 70.1602L224.352 62.3555H220.988L225.547 74.0039L225.184 74.8359ZM252.055 68.2383C252.055 66.5625 251.445 65.1211 250.25 63.9258C249.055 62.7305 247.613 62.1328 245.938 62.1328C244.438 62.1328 243.137 62.6016 242.012 63.5508C240.887 64.5 240.195 65.5898 239.938 66.8086H238.133V62.3672H234.898V74.1328H238.133V69.6914H239.938C240.195 70.9102 240.887 71.9883 242.012 72.9375C243.137 73.8867 244.449 74.3672 245.938 74.3672C247.613 74.3672 249.055 73.7578 250.25 72.5625C251.445 71.3672 252.055 69.9258 252.055 68.2383ZM248.82 68.25C248.82 69.1875 248.539 69.9727 247.977 70.582C247.414 71.1914 246.734 71.4961 245.938 71.4961C245.141 71.4961 244.461 71.1914 243.898 70.582C243.336 69.9727 243.055 69.1875 243.055 68.25C243.055 67.3008 243.336 66.5273 243.898 65.918C244.461 65.3086 245.141 65.0156 245.938 65.0156C246.734 65.0156 247.414 65.3086 247.977 65.918C248.539 66.5273 248.82 67.3008 248.82 68.25ZM52.6953 101.238H57.2539V110.121H60.5V98.3555H49.4609V110.121H52.6953V101.238ZM66.2539 104.25C66.2539 103.371 66.5352 102.633 67.1094 102.023C67.6719 101.426 68.3516 101.121 69.1367 101.121C69.9102 101.121 70.5898 101.426 71.1641 102.023C71.7266 102.633 72.0195 103.371 72.0195 104.25C72.0195 105.129 71.7266 105.867 71.1641 106.465C70.5898 107.062 69.9102 107.355 69.1367 107.355C68.3516 107.355 67.6719 107.062 67.1094 106.465C66.5352 105.867 66.2539 105.129 66.2539 104.25ZM75.3711 104.238C75.3711 102.609 74.75 101.18 73.5078 99.9609C72.2656 98.7422 70.8125 98.1328 69.1367 98.1328C67.4492 98.1328 65.9961 98.7422 64.7539 99.9609C63.5117 101.18 62.8906 102.609 62.8906 104.238C62.8906 105.879 63.5117 107.309 64.7539 108.527C65.9961 109.746 67.4492 110.355 69.1367 110.355C70.8125 110.355 72.2656 109.746 73.5078 108.527C74.75 107.309 75.3711 105.879 75.3711 104.238ZM88.9297 98.3555H85.2148L81.0078 103.16V98.3555H77.7734V110.121H81.0078V107.238L82.4492 105.562L85.5664 110.121H89.1758L84.4883 103.406L88.9297 98.3555ZM93.4883 110.836C93.1016 111.727 92.4219 112.16 91.4492 112.16C90.9688 112.16 90.5703 112.09 90.2539 111.926V114.797L90.4883 114.879C90.6523 114.949 90.8984 115.008 91.25 115.066C91.5898 115.137 91.9414 115.16 92.293 115.16C94.2617 115.16 95.7734 113.719 96.8516 110.836L101.527 98.3555H98.1758L95.4102 106.16L92.6562 98.3555H89.293L93.8516 110.004L93.4883 110.836ZM106.438 101.238H110.996V110.121H114.242V98.3555H103.203V110.121H106.438V101.238ZM128.516 98.3555H124.801L120.594 103.16V98.3555H117.359V110.121H120.594V107.238L122.035 105.562L125.152 110.121H128.762L124.074 103.406L128.516 98.3555ZM133.074 110.836C132.688 111.727 132.008 112.16 131.035 112.16C130.555 112.16 130.156 112.09 129.84 111.926V114.797L130.074 114.879C130.238 114.949 130.484 115.008 130.836 115.066C131.176 115.137 131.527 115.16 131.879 115.16C133.848 115.16 135.359 113.719 136.438 110.836L141.113 98.3555H137.762L134.996 106.16L132.242 98.3555H128.879L133.438 110.004L133.074 110.836ZM146.633 105.316L147.23 93.3164H143.387L143.984 105.316H146.633ZM143.387 108.562C143.387 109.043 143.574 109.465 143.949 109.816C144.324 110.18 144.77 110.355 145.309 110.355C145.836 110.355 146.293 110.18 146.668 109.816C147.043 109.465 147.23 109.043 147.23 108.562C147.23 108.082 147.043 107.66 146.668 107.297C146.293 106.945 145.836 106.758 145.309 106.758C144.77 106.758 144.324 106.945 143.949 107.297C143.574 107.66 143.387 108.082 143.387 108.562Z" fill="white"/>
<circle cx="59.6263" cy="175.11" r="11.1067" transform="rotate(-90 59.6263 175.11)" fill="#00C65E" stroke="white"/>
<path fill-rule="evenodd" clip-rule="evenodd" d="M62.5477 175.694L57.8743 180.367C57.5516 180.69 57.0284 180.69 56.7058 180.367C56.3831 180.045 56.3831 179.522 56.7058 179.199L60.7951 175.11L56.7054 171.02C56.3827 170.697 56.3827 170.174 56.7054 169.851C57.028 169.529 57.5512 169.529 57.8739 169.851L62.5287 174.506C62.5353 174.512 62.5414 174.519 62.5477 174.525C62.8297 174.808 62.8652 175.244 62.6536 175.564C62.6233 175.61 62.5881 175.653 62.5477 175.694Z" fill="white"/>
<path opacity="0.4" d="M575.126 147.192C581.43 171.281 562.111 194.401 537.285 192.478L456.024 186.184C426.673 183.911 412.149 149.432 431.025 126.842L491.651 54.2874C510.527 31.6971 547.038 39.8636 554.491 68.3431L575.126 147.192Z" fill="white"/>
<path d="M314.031 231.224C296.069 239.203 275.378 227.119 273.502 207.555L267.36 143.518C265.142 120.388 290.101 104.687 310.318 116.494L375.251 154.415C395.468 166.222 394.057 195.675 372.822 205.108L314.031 231.224Z" fill="#FFB762"/>
<path d="M359.494 40.5307C366.257 27.7827 383.569 25.5023 393.403 36.0639L425.592 70.6345C437.218 83.1211 429.884 103.526 412.969 105.754L358.642 112.91C341.727 115.138 329.359 97.3289 337.355 82.2575L359.494 40.5307Z" fill="white"/>
<path d="M480.364 120.325C477.37 120.136 474.997 120.52 473.247 121.474L474.392 113.217L492.918 114.382L493.441 106.054L466.307 104.349L463.109 129.823L469.776 130.869L470.519 130.007C471.022 129.475 471.901 128.936 473.155 128.42C474.375 127.933 475.767 127.707 477.326 127.805C479.541 127.944 481.336 128.777 482.682 130.271C484.027 131.796 484.634 133.587 484.505 135.646C484.374 137.735 483.613 139.378 482.158 140.602C480.703 141.826 478.793 142.332 476.391 142.181C474.52 142.063 472.737 141.544 470.981 140.588C469.254 139.666 468.141 138.938 467.611 138.404C467.112 137.872 466.732 137.441 466.473 137.08L460.354 142.77L460.902 143.524C461.274 144.08 461.892 144.714 462.753 145.457C463.645 146.202 464.665 146.923 465.838 147.686C467.011 148.449 468.564 149.141 470.467 149.762C472.369 150.382 474.383 150.728 476.503 150.861C481.556 151.179 485.734 149.97 489.039 147.203C492.344 144.436 494.107 140.79 494.392 136.267C494.662 131.963 493.482 128.319 490.793 125.27C488.133 122.253 484.668 120.595 480.364 120.325ZM508.724 116.659C508.804 115.38 509.276 114.345 510.205 113.527C511.1 112.738 512.188 112.368 513.466 112.448C514.745 112.528 515.778 113.032 516.598 113.929C517.385 114.855 517.755 115.943 517.675 117.221C517.595 118.5 517.091 119.533 516.196 120.322C515.268 121.141 514.182 121.48 512.904 121.399C511.625 121.319 510.59 120.847 509.803 119.92C508.982 119.023 508.644 117.938 508.724 116.659ZM506.205 151.757L514.189 152.259L545.101 109.301L537.117 108.799L506.205 151.757ZM524.069 117.623C524.243 114.848 523.306 112.315 521.319 110.061C519.331 107.807 516.841 106.586 513.847 106.397C510.852 106.209 508.228 107.109 505.974 109.096C503.72 111.084 502.505 113.481 502.33 116.257C502.156 119.033 503.061 121.563 505.049 123.817C507.037 126.072 509.527 127.293 512.521 127.481C515.516 127.669 518.14 126.769 520.394 124.782C522.648 122.794 523.894 120.399 524.069 117.623ZM542.58 144.431C542.499 145.71 541.996 146.743 541.101 147.532C540.173 148.35 539.087 148.689 537.808 148.609C536.53 148.528 535.495 148.056 534.708 147.13C533.887 146.233 533.548 145.147 533.629 143.868C533.709 142.59 534.181 141.555 535.109 140.736C536.004 139.947 537.092 139.577 538.371 139.658C539.65 139.738 540.683 140.241 541.503 141.138C542.29 142.064 542.66 143.152 542.58 144.431ZM527.235 143.467C527.061 146.242 527.966 148.773 529.954 151.027C531.941 153.281 534.432 154.502 537.426 154.69C540.42 154.879 543.044 153.979 545.298 151.991C547.553 150.004 548.799 147.609 548.973 144.833C549.146 142.088 548.209 139.556 546.222 137.302C544.234 135.048 541.745 133.795 538.751 133.607C535.757 133.419 533.131 134.35 530.877 136.337C528.623 138.325 527.408 140.722 527.235 143.467Z" fill="#F89358"/>
<path d="M293.317 140.02L292.948 140.279C292.694 140.465 292.325 140.67 291.851 140.875C291.378 141.08 290.82 141.242 290.211 141.403C289.601 141.565 288.815 141.609 287.893 141.557C286.95 141.495 286.009 141.276 285.038 140.909L282.952 144.976L288.061 147.597L276.891 169.367L283.314 172.663L298.656 142.759L293.317 140.02ZM318.825 165.804C316.823 164.777 315.077 164.329 313.588 164.46L316.85 159.127L329.237 165.482L332.094 159.915L313.952 150.607L304.115 167.161L308.385 169.878L309.154 169.509C309.659 169.294 310.425 169.186 311.442 169.207C312.427 169.239 313.451 169.501 314.494 170.036C315.975 170.795 316.959 171.906 317.437 173.337C317.904 174.788 317.784 176.202 317.078 177.578C316.361 178.975 315.346 179.877 313.979 180.282C312.612 180.687 311.147 180.462 309.541 179.638C308.29 178.996 307.219 178.105 306.299 176.921C305.388 175.769 304.841 174.936 304.637 174.409C304.454 173.894 304.322 173.484 304.252 173.158L298.339 175.235L298.49 175.918C298.579 176.411 298.813 177.032 299.183 177.801C299.573 178.581 300.057 179.383 300.635 180.259C301.213 181.135 302.073 182.077 303.195 183.074C304.317 184.07 305.597 184.912 307.015 185.639C310.394 187.373 313.628 187.794 316.73 186.883C319.832 185.972 322.137 183.994 323.689 180.97C325.165 178.092 325.446 175.233 324.512 172.331C323.588 169.459 321.703 167.28 318.825 165.804ZM339.611 171.885C340.05 171.03 340.684 170.46 341.568 170.175C342.42 169.901 343.279 169.973 344.134 170.412C344.989 170.85 345.548 171.506 345.843 172.369C346.106 173.241 346.034 174.1 345.596 174.955C345.157 175.81 344.501 176.369 343.65 176.644C342.766 176.928 341.918 176.835 341.063 176.397C340.208 175.958 339.638 175.323 339.375 174.45C339.08 173.588 339.172 172.74 339.611 171.885ZM327.356 195.258L332.694 197.997L366.825 177.733L361.486 174.995L327.356 195.258ZM349.871 177.148C350.823 175.293 350.938 173.271 350.248 171.125C349.557 168.98 348.211 167.393 346.209 166.366C344.207 165.339 342.133 165.171 339.988 165.861C337.842 166.552 336.288 167.836 335.336 169.691C334.384 171.547 334.248 173.559 334.938 175.704C335.629 177.85 336.975 179.436 338.977 180.463C340.979 181.49 343.052 181.658 345.198 180.968C347.343 180.277 348.918 179.004 349.871 177.148ZM354.559 201.128C354.12 201.983 353.464 202.542 352.612 202.816C351.729 203.101 350.881 203.008 350.026 202.569C349.171 202.131 348.601 201.496 348.338 200.623C348.043 199.76 348.135 198.912 348.574 198.057C349.013 197.202 349.647 196.632 350.531 196.348C351.383 196.074 352.241 196.146 353.096 196.584C353.951 197.023 354.511 197.679 354.806 198.541C355.069 199.414 354.997 200.273 354.559 201.128ZM344.299 195.864C343.347 197.72 343.211 199.731 343.901 201.877C344.592 204.022 345.938 205.609 347.94 206.636C349.942 207.663 352.015 207.831 354.161 207.14C356.306 206.45 357.881 205.177 358.834 203.321C359.775 201.486 359.89 199.464 359.2 197.319C358.509 195.173 357.174 193.566 355.172 192.539C353.17 191.512 351.086 191.364 348.94 192.055C346.795 192.745 345.24 194.029 344.299 195.864Z" fill="white"/>
<path d="M362.206 71.3738L362.135 71.5876C362.089 71.7379 362.002 71.9305 361.873 72.1539C361.743 72.3773 361.568 72.6084 361.371 72.8548C361.175 73.1013 360.872 73.3535 360.487 73.6076C360.089 73.8635 359.646 74.0559 359.147 74.1982L359.521 76.4525L362.354 75.9822L364.358 88.0514L367.918 87.4602L365.166 70.8825L362.206 71.3738ZM376.738 77.4785C376.451 75.7444 376.575 74.3458 377.122 73.2808C377.67 72.2157 378.424 71.6035 379.395 71.4423C380.355 71.283 381.266 71.6188 382.128 72.4497C382.979 73.2825 383.56 74.564 383.848 76.2981C384.136 78.0321 384 79.4327 383.464 80.4958C382.916 81.5608 382.163 82.173 381.203 82.3323C380.232 82.4935 379.321 82.1578 378.458 81.3269C377.596 80.496 377.026 79.2126 376.738 77.4785ZM387.397 75.7088C386.967 73.1193 385.928 71.1535 384.289 69.7982C382.639 68.4447 380.831 67.9253 378.865 68.2516C376.888 68.5798 375.345 69.6558 374.22 71.4699C373.096 73.284 372.748 75.4801 373.178 78.0696C373.608 80.6592 374.649 82.6365 376.299 83.9899C377.951 85.355 379.758 85.8628 381.735 85.5346C383.7 85.2083 385.246 84.1439 386.368 82.3182C387.481 80.506 387.827 78.2984 387.397 75.7088ZM391.132 70.2301C391.054 69.7561 391.139 69.3381 391.409 68.9607C391.669 68.5967 392.035 68.3696 392.509 68.2909C392.983 68.2122 393.403 68.3088 393.779 68.5672C394.144 68.8391 394.371 69.2053 394.45 69.6793C394.529 70.1532 394.432 70.5732 394.172 70.9371C393.902 71.3146 393.534 71.5301 393.06 71.6088C392.586 71.6875 392.168 71.6025 391.802 71.3306C391.427 71.0722 391.211 70.7041 391.132 70.2301ZM393.178 83.2664L396.137 82.7751L403.801 64.468L400.842 64.9593L393.178 83.2664ZM396.82 69.2858C396.649 68.2569 396.093 67.4108 395.176 66.7552C394.26 66.0996 393.247 65.8639 392.137 66.0482C391.027 66.2325 390.144 66.7829 389.489 67.6995C388.833 68.6162 388.592 69.5947 388.762 70.6236C388.933 71.6525 389.478 72.5005 390.395 73.1561C391.311 73.8117 392.324 74.0474 393.434 73.8631C394.544 73.6788 395.427 73.1284 396.082 72.2118C396.738 71.2951 396.991 70.3147 396.82 69.2858ZM405.849 77.5159C405.927 77.9898 405.831 78.4098 405.57 78.7737C405.3 79.1512 404.932 79.3667 404.458 79.4454C403.984 79.5241 403.566 79.4391 403.2 79.1672C402.825 78.9088 402.609 78.5407 402.531 78.0667C402.452 77.5927 402.537 77.1747 402.807 76.7973C403.067 76.4333 403.433 76.2062 403.907 76.1275C404.381 76.0488 404.801 76.1454 405.177 76.4038C405.543 76.6757 405.77 77.0419 405.849 77.5159ZM400.161 78.4602C400.332 79.4891 400.876 80.3371 401.793 80.9927C402.71 81.6483 403.723 81.884 404.833 81.6997C405.942 81.5154 406.825 80.965 407.481 80.0484C408.136 79.1317 408.389 78.1513 408.218 77.1224C408.05 76.1051 407.493 75.259 406.577 74.6034C405.66 73.9478 404.645 73.7005 403.535 73.8848C402.425 74.0691 401.545 74.6311 400.889 75.5477C400.233 76.4643 399.992 77.4429 400.161 78.4602Z" fill="#FFB762"/>
</g>
</g>
</g>
<defs>
<filter id="filter0_d_1652_36049" x="0" y="0.00390625" width="608" height="238" filterUnits="userSpaceOnUse" color-interpolation-filters="sRGB">
<feFlood flood-opacity="0" result="BackgroundImageFix"/>
<feColorMatrix in="SourceAlpha" type="matrix" values="0 0 0 0 0 0 0 0 0 0 0 0 0 0 0 0 0 0 127 0" result="hardAlpha"/>
<feMorphology radius="3" operator="dilate" in="SourceAlpha" result="effect1_dropShadow_1652_36049"/>
<feOffset dx="1" dy="2"/>
<feGaussianBlur stdDeviation="8"/>
<feColorMatrix type="matrix" values="0 0 0 0 0.211765 0 0 0 0 0.227451 0 0 0 0 0.270588 0 0 0 0.08 0"/>
<feBlend mode="normal" in2="BackgroundImageFix" result="effect1_dropShadow_1652_36049"/>
<feBlend mode="normal" in="SourceGraphic" in2="effect1_dropShadow_1652_36049" result="shape"/>
</filter>
<filter id="filter1_d_1652_36049" x="0" y="-0.00390625" width="641.46" height="284.236" filterUnits="userSpaceOnUse" color-interpolation-filters="sRGB">
<feFlood flood-opacity="0" result="BackgroundImageFix"/>
<feColorMatrix in="SourceAlpha" type="matrix" values="0 0 0 0 0 0 0 0 0 0 0 0 0 0 0 0 0 0 127 0" result="hardAlpha"/>
<feMorphology radius="3" operator="dilate" in="SourceAlpha" result="effect1_dropShadow_1652_36049"/>
<feOffset dx="1" dy="2"/>
<feGaussianBlur stdDeviation="8"/>
<feColorMatrix type="matrix" values="0 0 0 0 0.211765 0 0 0 0 0.227451 0 0 0 0 0.270588 0 0 0 0.08 0"/>
<feBlend mode="normal" in2="BackgroundImageFix" result="effect1_dropShadow_1652_36049"/>
<feBlend mode="normal" in="SourceGraphic" in2="effect1_dropShadow_1652_36049" result="shape"/>
</filter>
<clipPath id="clip0_1652_36049">
<rect x="18" y="17.0039" width="570" height="200" rx="10" fill="white"/>
</clipPath>
</defs>
</svg>
