<svg width="608" height="239" viewBox="0 0 608 239" fill="none" xmlns="http://www.w3.org/2000/svg">
<g filter="url(#filter0_d_1652_36066)">
<g clip-path="url(#clip0_1652_36066)">
<rect x="18" y="17.0039" width="570" height="200" rx="10" fill="#01C65E"/>
<g filter="url(#filter1_d_1652_36066)">
<path d="M588 206.998C588 212.521 583.523 216.998 578 216.998H303H28C22.4772 216.998 18 212.521 18 206.998V26.998C18 21.4752 22.4772 16.998 28 16.998H303H578C583.523 16.998 588 21.4752 588 26.998V206.998Z" fill="#FFB762"/>
<path d="M55.8242 56.9648C54.9336 56.9648 54.0898 57.0938 53.293 57.3281C52.4961 57.5625 51.8398 57.832 51.3477 58.125C50.8555 58.4297 50.3867 58.7695 49.9648 59.1445C49.5312 59.5312 49.25 59.8008 49.1328 59.9531C49.0156 60.1055 48.9219 60.2227 48.8633 60.3164L51.1367 62.6016L51.3359 62.3555C51.4414 62.1914 51.6289 61.9922 51.8984 61.7578C52.1562 61.5234 52.4727 61.2891 52.8242 61.0547C53.1758 60.8203 53.6094 60.6211 54.1484 60.457C54.6875 60.293 55.2383 60.1992 55.8242 60.1992C57.1367 60.1992 58.2617 60.5742 59.1992 61.3125C60.1367 62.0508 60.7695 62.9648 61.0977 64.043H53.6562V67.2773H61.0977C60.7695 68.4375 60.1602 69.3867 59.2461 70.125C58.332 70.875 57.1953 71.2383 55.8242 71.2383C55.2148 71.2383 54.6172 71.1562 54.0547 70.9805C53.4805 70.8047 53.0234 70.6172 52.6836 70.4062C52.332 70.1953 52.0039 69.9609 51.6992 69.6797C51.3828 69.4102 51.1836 69.2227 51.1016 69.1055C51.0078 68.9883 50.9492 68.9062 50.9023 68.8359L48.7344 71.1211L49.0273 71.4844C49.2031 71.707 49.4961 71.9766 49.8945 72.3047C50.293 72.6328 50.75 72.9609 51.2773 73.2891C51.8047 73.6172 52.4727 73.8984 53.2812 74.1328C54.0898 74.3672 54.9336 74.4844 55.8242 74.4844C58.3789 74.4844 60.5352 73.6289 62.293 71.918C64.0508 70.207 64.9414 68.1328 64.9414 65.7188C64.9414 63.3047 64.0625 61.2422 62.3164 59.5312C60.5586 57.8203 58.4023 56.9648 55.8242 56.9648ZM78.7344 62.3555H75.0195L70.8125 67.1602V62.3555H67.5781V74.1211H70.8125V71.2383L72.2539 69.5625L75.3711 74.1211H78.9805L74.293 67.4062L78.7344 62.3555ZM79.3203 68.2383C79.3203 69.8789 79.9414 71.3086 81.207 72.5273C82.4609 73.7461 83.9492 74.3555 85.6719 74.3555C86.2812 74.3555 86.8672 74.2734 87.418 74.0977C87.9688 73.9219 88.4141 73.7344 88.7539 73.5234C89.1055 73.3125 89.4219 73.0781 89.7148 72.8086C90.0195 72.5391 90.207 72.3516 90.2891 72.2344C90.3711 72.1172 90.4297 72.0352 90.4766 71.9648L88.5547 69.9258L88.2383 70.3242C88.0273 70.582 87.6758 70.8398 87.1953 71.0977C86.7148 71.3555 86.2109 71.4844 85.6719 71.4844C84.8281 71.4844 84.1016 71.168 83.4805 70.5352C82.8711 69.9023 82.5547 69.1406 82.5547 68.25C82.5547 67.3594 82.8711 66.5859 83.4805 65.9531C84.0898 65.3203 84.8281 65.0039 85.6719 65.0039C86.2109 65.0039 86.7148 65.1562 87.1953 65.4375C87.6758 65.7188 87.9922 65.9531 88.1328 66.1289C88.2734 66.3164 88.3789 66.457 88.4375 66.5625L90.4766 64.5234L90.3008 64.2773C90.1836 64.1133 89.9844 63.9023 89.7031 63.668C89.4336 63.4336 89.1172 63.2109 88.7656 62.9766C88.4141 62.7422 87.9688 62.543 87.418 62.3789C86.8672 62.2148 86.2812 62.1211 85.6719 62.1211C83.9492 62.1211 82.4609 62.7422 81.1953 63.9609C79.9414 65.1797 79.3203 66.6094 79.3203 68.2383ZM95.8906 65.2383H100.449V74.1211H103.695V62.3555H92.6562V74.1211H95.8906V65.2383ZM113.527 74.3555C115.051 74.3555 116.363 73.7695 117.488 72.5859C118.613 71.4023 119.176 69.9492 119.176 68.2383C119.176 66.5273 118.613 65.0859 117.488 63.9023C116.363 62.7188 115.051 62.1211 113.527 62.1211C113.094 62.1211 112.684 62.1914 112.285 62.3086C111.887 62.4258 111.559 62.5664 111.312 62.7188C111.055 62.8711 110.82 63.0469 110.609 63.2344C110.398 63.4219 110.258 63.5508 110.188 63.6211C110.117 63.6914 110.07 63.75 110.047 63.7969V62.3555H106.812V79.1602H110.047V72.6797L110.41 73.1133C110.645 73.3945 111.055 73.6641 111.641 73.9453C112.227 74.2266 112.848 74.3555 113.527 74.3555ZM112.93 65.0039C113.727 65.0039 114.406 65.3086 114.969 65.918C115.531 66.5273 115.812 67.3008 115.812 68.25C115.812 69.1875 115.531 69.9727 114.969 70.582C114.406 71.1914 113.727 71.4961 112.93 71.4961C112.133 71.4961 111.453 71.1914 110.891 70.582C110.328 69.9727 110.047 69.1875 110.047 68.25C110.047 67.3008 110.328 66.5273 110.891 65.918C111.453 65.3086 112.133 65.0039 112.93 65.0039ZM132.734 69.3164L132.852 68.0039C132.852 66.3281 132.289 64.9336 131.176 63.8086C130.051 62.6836 128.656 62.1211 126.98 62.1211C125.293 62.1211 123.852 62.7305 122.656 63.9258C121.449 65.1211 120.852 66.5625 120.852 68.2383C120.852 69.9258 121.461 71.3672 122.68 72.5625C123.898 73.7578 125.363 74.3555 127.098 74.3555C127.707 74.3555 128.293 74.2852 128.867 74.1445C129.441 74.0039 129.91 73.8516 130.273 73.6641C130.625 73.4766 130.965 73.2656 131.293 73.0312C131.609 72.7969 131.82 72.6328 131.914 72.5391L132.137 72.3164L130.461 70.1602L130.121 70.5234C129.91 70.7695 129.535 71.0156 129.02 71.25C128.504 71.4844 127.941 71.6016 127.332 71.6016C126.488 71.6016 125.785 71.3906 125.234 70.9453C124.672 70.5 124.332 69.9609 124.215 69.3164H132.734ZM126.98 64.8867C127.66 64.8867 128.246 65.0977 128.715 65.4961C129.184 65.9062 129.488 66.4219 129.617 67.043H124.215C124.402 66.4102 124.742 65.8828 125.223 65.4844C125.703 65.0859 126.289 64.8867 126.98 64.8867ZM134.539 68.2383C134.539 69.8789 135.16 71.3086 136.426 72.5273C137.68 73.7461 139.168 74.3555 140.891 74.3555C141.5 74.3555 142.086 74.2734 142.637 74.0977C143.188 73.9219 143.633 73.7344 143.973 73.5234C144.324 73.3125 144.641 73.0781 144.934 72.8086C145.238 72.5391 145.426 72.3516 145.508 72.2344C145.59 72.1172 145.648 72.0352 145.695 71.9648L143.773 69.9258L143.457 70.3242C143.246 70.582 142.895 70.8398 142.414 71.0977C141.934 71.3555 141.43 71.4844 140.891 71.4844C140.047 71.4844 139.32 71.168 138.699 70.5352C138.09 69.9023 137.773 69.1406 137.773 68.25C137.773 67.3594 138.09 66.5859 138.699 65.9531C139.309 65.3203 140.047 65.0039 140.891 65.0039C141.43 65.0039 141.934 65.1562 142.414 65.4375C142.895 65.7188 143.211 65.9531 143.352 66.1289C143.492 66.3164 143.598 66.457 143.656 66.5625L145.695 64.5234L145.52 64.2773C145.402 64.1133 145.203 63.9023 144.922 63.668C144.652 63.4336 144.336 63.2109 143.984 62.9766C143.633 62.7422 143.188 62.543 142.637 62.3789C142.086 62.2148 141.5 62.1211 140.891 62.1211C139.168 62.1211 137.68 62.7422 136.414 63.9609C135.16 65.1797 134.539 66.6094 134.539 68.2383ZM146.656 68.2383C146.656 69.8789 147.277 71.3086 148.543 72.5273C149.797 73.7461 151.285 74.3555 153.008 74.3555C153.617 74.3555 154.203 74.2734 154.754 74.0977C155.305 73.9219 155.75 73.7344 156.09 73.5234C156.441 73.3125 156.758 73.0781 157.051 72.8086C157.355 72.5391 157.543 72.3516 157.625 72.2344C157.707 72.1172 157.766 72.0352 157.812 71.9648L155.891 69.9258L155.574 70.3242C155.363 70.582 155.012 70.8398 154.531 71.0977C154.051 71.3555 153.547 71.4844 153.008 71.4844C152.164 71.4844 151.438 71.168 150.816 70.5352C150.207 69.9023 149.891 69.1406 149.891 68.25C149.891 67.3594 150.207 66.5859 150.816 65.9531C151.426 65.3203 152.164 65.0039 153.008 65.0039C153.547 65.0039 154.051 65.1562 154.531 65.4375C155.012 65.7188 155.328 65.9531 155.469 66.1289C155.609 66.3164 155.715 66.457 155.773 66.5625L157.812 64.5234L157.637 64.2773C157.52 64.1133 157.32 63.9023 157.039 63.668C156.77 63.4336 156.453 63.2109 156.102 62.9766C155.75 62.7422 155.305 62.543 154.754 62.3789C154.203 62.2148 153.617 62.1211 153.008 62.1211C151.285 62.1211 149.797 62.7422 148.531 63.9609C147.277 65.1797 146.656 66.6094 146.656 68.2383ZM163.355 71.2383V76.8867H166.59V74.1211H173.316V76.8867H176.551V71.2383H174.992V62.3555H165.992V65.6016C165.992 66.3398 165.922 67.043 165.781 67.7109C165.641 68.3672 165.488 68.9062 165.324 69.3047C165.16 69.7031 164.961 70.0781 164.738 70.418C164.516 70.7461 164.363 70.957 164.27 71.0508C164.176 71.1328 164.117 71.2031 164.07 71.25L163.355 71.2383ZM168.992 65.25H171.758V71.25H167.434L167.844 70.6289C168.102 70.207 168.348 69.5625 168.605 68.6836C168.863 67.8047 168.992 66.9023 168.992 65.9766V65.25ZM181.355 68.25C181.355 67.3711 181.637 66.6328 182.211 66.0234C182.773 65.4258 183.453 65.1211 184.238 65.1211C185.012 65.1211 185.691 65.4258 186.266 66.0234C186.828 66.6328 187.121 67.3711 187.121 68.25C187.121 69.1289 186.828 69.8672 186.266 70.4648C185.691 71.0625 185.012 71.3555 184.238 71.3555C183.453 71.3555 182.773 71.0625 182.211 70.4648C181.637 69.8672 181.355 69.1289 181.355 68.25ZM190.473 68.2383C190.473 66.6094 189.852 65.1797 188.609 63.9609C187.367 62.7422 185.914 62.1328 184.238 62.1328C182.551 62.1328 181.098 62.7422 179.855 63.9609C178.613 65.1797 177.992 66.6094 177.992 68.2383C177.992 69.8789 178.613 71.3086 179.855 72.5273C181.098 73.7461 182.551 74.3555 184.238 74.3555C185.914 74.3555 187.367 73.7461 188.609 72.5273C189.852 71.3086 190.473 69.8789 190.473 68.2383ZM192.148 68.2383C192.148 69.8789 192.77 71.3086 194.035 72.5273C195.289 73.7461 196.777 74.3555 198.5 74.3555C199.109 74.3555 199.695 74.2734 200.246 74.0977C200.797 73.9219 201.242 73.7344 201.582 73.5234C201.934 73.3125 202.25 73.0781 202.543 72.8086C202.848 72.5391 203.035 72.3516 203.117 72.2344C203.199 72.1172 203.258 72.0352 203.305 71.9648L201.383 69.9258L201.066 70.3242C200.855 70.582 200.504 70.8398 200.023 71.0977C199.543 71.3555 199.039 71.4844 198.5 71.4844C197.656 71.4844 196.93 71.168 196.309 70.5352C195.699 69.9023 195.383 69.1406 195.383 68.25C195.383 67.3594 195.699 66.5859 196.309 65.9531C196.918 65.3203 197.656 65.0039 198.5 65.0039C199.039 65.0039 199.543 65.1562 200.023 65.4375C200.504 65.7188 200.82 65.9531 200.961 66.1289C201.102 66.3164 201.207 66.457 201.266 66.5625L203.305 64.5234L203.129 64.2773C203.012 64.1133 202.812 63.9023 202.531 63.668C202.262 63.4336 201.945 63.2109 201.594 62.9766C201.242 62.7422 200.797 62.543 200.246 62.3789C199.695 62.2148 199.109 62.1211 198.5 62.1211C196.777 62.1211 195.289 62.7422 194.023 63.9609C192.77 65.1797 192.148 66.6094 192.148 68.2383ZM204.277 65.4844H208.004V74.1211H211.238V65.4844H214.965V62.3555H204.277V65.4844ZM223.355 74.1211H226.59V66.7969C226.59 65.4609 226.121 64.3477 225.184 63.457C224.246 62.5664 223.027 62.1211 221.551 62.1211C220.977 62.1211 220.414 62.2148 219.863 62.3789C219.324 62.543 218.879 62.7305 218.539 62.9297C218.211 63.1289 217.895 63.3516 217.613 63.6094C217.332 63.8672 217.145 64.0547 217.062 64.1602C216.98 64.2656 216.91 64.3477 216.863 64.4062L218.656 66.1992L218.926 65.918C219.113 65.707 219.418 65.5078 219.852 65.3086C220.297 65.1094 220.777 65.0039 221.305 65.0039C221.949 65.0039 222.453 65.168 222.805 65.4727C223.168 65.7891 223.344 66.1875 223.344 66.6797L219.617 67.3477C218.539 67.5469 217.684 67.9688 217.062 68.6016C216.453 69.2461 216.137 70.043 216.137 71.0039C216.137 71.9414 216.512 72.7266 217.238 73.3828C217.977 74.0391 218.926 74.3555 220.098 74.3555C220.707 74.3555 221.293 74.2266 221.855 73.9688C222.418 73.7109 222.793 73.5 222.957 73.3359C223.121 73.1719 223.25 73.043 223.344 72.9258L223.355 74.1211ZM220.941 71.7188C219.91 71.7188 219.383 71.3203 219.383 70.5234C219.383 69.7852 219.828 69.3398 220.707 69.1992L223.344 68.7188V69.082C223.344 69.9141 223.133 70.5586 222.699 71.0273C222.266 71.4961 221.68 71.7188 220.941 71.7188ZM229.719 62.3555V74.1211H235.836C237.113 74.1211 238.133 73.793 238.895 73.125C239.656 72.4688 240.043 71.6367 240.043 70.6406C240.043 70.2656 239.973 69.9141 239.832 69.5859C239.691 69.2695 239.539 69.0234 239.375 68.8359C239.211 68.6484 239.012 68.4844 238.789 68.3438C238.555 68.2031 238.402 68.1094 238.32 68.0742C238.227 68.0508 238.168 68.0273 238.121 68.0039L238.473 67.7812C238.707 67.6641 238.953 67.3945 239.199 66.9961C239.434 66.5977 239.562 66.1406 239.562 65.6016C239.562 64.7227 239.188 63.9609 238.461 63.3164C237.723 62.6836 236.773 62.3555 235.602 62.3555H229.719ZM235.602 69.082C235.965 69.082 236.258 69.1992 236.469 69.4219C236.68 69.6445 236.797 69.9258 236.797 70.2773C236.797 70.6289 236.68 70.9219 236.469 71.1445C236.258 71.3789 235.965 71.4844 235.602 71.4844H232.953V69.082H235.602ZM236.316 65.9648C236.316 66.6094 235.988 66.9258 235.355 66.9258H232.953V65.0039H235.355C235.988 65.0039 236.316 65.332 236.316 65.9648ZM253.602 62.3555H249.887L245.68 67.1602V62.3555H242.445V74.1211H245.68V71.2383L247.121 69.5625L250.238 74.1211H253.848L249.16 67.4062L253.602 62.3555ZM261.887 74.1211H265.121V66.7969C265.121 65.4609 264.652 64.3477 263.715 63.457C262.777 62.5664 261.559 62.1211 260.082 62.1211C259.508 62.1211 258.945 62.2148 258.395 62.3789C257.855 62.543 257.41 62.7305 257.07 62.9297C256.742 63.1289 256.426 63.3516 256.145 63.6094C255.863 63.8672 255.676 64.0547 255.594 64.1602C255.512 64.2656 255.441 64.3477 255.395 64.4062L257.188 66.1992L257.457 65.918C257.645 65.707 257.949 65.5078 258.383 65.3086C258.828 65.1094 259.309 65.0039 259.836 65.0039C260.48 65.0039 260.984 65.168 261.336 65.4727C261.699 65.7891 261.875 66.1875 261.875 66.6797L258.148 67.3477C257.07 67.5469 256.215 67.9688 255.594 68.6016C254.984 69.2461 254.668 70.043 254.668 71.0039C254.668 71.9414 255.043 72.7266 255.77 73.3828C256.508 74.0391 257.457 74.3555 258.629 74.3555C259.238 74.3555 259.824 74.2266 260.387 73.9688C260.949 73.7109 261.324 73.5 261.488 73.3359C261.652 73.1719 261.781 73.043 261.875 72.9258L261.887 74.1211ZM259.473 71.7188C258.441 71.7188 257.914 71.3203 257.914 70.5234C257.914 69.7852 258.359 69.3398 259.238 69.1992L261.875 68.7188V69.082C261.875 69.9141 261.664 70.5586 261.23 71.0273C260.797 71.4961 260.211 71.7188 259.473 71.7188ZM57.7344 114.602C57.7344 113.664 57.3125 112.844 56.4805 112.152C55.6484 111.473 54.5469 111.121 53.1758 111.121C52.6016 111.121 52.0508 111.191 51.5117 111.332C50.9727 111.473 50.5391 111.625 50.2227 111.789C49.8945 111.953 49.6016 112.152 49.3203 112.375C49.0391 112.598 48.8633 112.75 48.7812 112.844C48.6992 112.938 48.6406 112.996 48.6172 113.043L50.4219 114.836L50.7266 114.578C50.9375 114.391 51.2422 114.203 51.6406 114.027C52.0391 113.852 52.4375 113.758 52.8242 113.758C53.8555 113.77 54.3828 114.168 54.3828 114.965C54.3828 115.293 54.2422 115.551 53.9844 115.75C53.7266 115.949 53.3398 116.043 52.8242 116.043H51.6172V118.199H52.8242C54.0898 118.211 54.7344 118.609 54.7344 119.406C54.7344 119.793 54.5703 120.109 54.2422 120.355C53.9141 120.602 53.4453 120.719 52.8242 120.719C52.2852 120.719 51.7812 120.602 51.3008 120.355C50.8203 120.109 50.5039 119.91 50.3633 119.77C50.2227 119.629 50.1172 119.5 50.0586 119.406L48.2539 121.199L48.4531 121.445C48.5586 121.586 48.7461 121.762 49.0273 121.973C49.2969 122.184 49.6133 122.383 49.9766 122.594C50.3516 122.805 50.8203 122.992 51.3828 123.133C51.9453 123.285 52.543 123.355 53.1641 123.355C54.7695 123.355 56.0117 123.027 56.8906 122.348C57.7695 121.668 58.2031 120.848 58.2031 119.887C58.2031 119.453 58.1211 119.055 57.9453 118.703C57.7695 118.352 57.582 118.082 57.3711 117.883C57.1602 117.684 56.9258 117.508 56.6445 117.367C56.375 117.227 56.1875 117.133 56.0703 117.086C55.9648 117.051 55.8828 117.027 55.8125 117.016L56 116.945C56.1289 116.91 56.293 116.828 56.4922 116.711C56.6797 116.594 56.8789 116.441 57.0664 116.277C57.2539 116.113 57.418 115.879 57.5469 115.586C57.6641 115.281 57.7344 114.953 57.7344 114.602ZM67.0977 123.121H70.332V115.797C70.332 114.461 69.8633 113.348 68.9258 112.457C67.9883 111.566 66.7695 111.121 65.293 111.121C64.7188 111.121 64.1562 111.215 63.6055 111.379C63.0664 111.543 62.6211 111.73 62.2812 111.93C61.9531 112.129 61.6367 112.352 61.3555 112.609C61.0742 112.867 60.8867 113.055 60.8047 113.16C60.7227 113.266 60.6523 113.348 60.6055 113.406L62.3984 115.199L62.668 114.918C62.8555 114.707 63.1602 114.508 63.5938 114.309C64.0391 114.109 64.5195 114.004 65.0469 114.004C65.6914 114.004 66.1953 114.168 66.5469 114.473C66.9102 114.789 67.0859 115.188 67.0859 115.68L63.3594 116.348C62.2812 116.547 61.4258 116.969 60.8047 117.602C60.1953 118.246 59.8789 119.043 59.8789 120.004C59.8789 120.941 60.2539 121.727 60.9805 122.383C61.7188 123.039 62.668 123.355 63.8398 123.355C64.4492 123.355 65.0352 123.227 65.5977 122.969C66.1602 122.711 66.5352 122.5 66.6992 122.336C66.8633 122.172 66.9922 122.043 67.0859 121.926L67.0977 123.121ZM64.6836 120.719C63.6523 120.719 63.125 120.32 63.125 119.523C63.125 118.785 63.5703 118.34 64.4492 118.199L67.0859 117.719V118.082C67.0859 118.914 66.875 119.559 66.4414 120.027C66.0078 120.496 65.4219 120.719 64.6836 120.719Z" fill="white"/>
<path d="M97.2793 123.121V118.076H86.4863C86.9785 117.303 87.7168 116.512 88.7012 115.738C89.668 114.965 90.6172 114.262 91.5488 113.646C92.4805 113.031 93.3945 112.363 94.291 111.625C95.1699 110.887 95.8906 110.008 96.4531 108.953C96.998 107.916 97.2793 106.756 97.2793 105.473C97.2793 103.205 96.4355 101.289 94.7832 99.7246C93.1309 98.1777 91.0215 97.3867 88.4551 97.3867C87.1367 97.3867 85.9238 97.6152 84.834 98.0371C83.7441 98.459 82.9004 98.9336 82.3027 99.4434C81.7051 99.9707 81.1777 100.568 80.7207 101.254C80.2637 101.939 79.9824 102.414 79.877 102.678C79.7715 102.959 79.6836 103.17 79.6484 103.328L84.1484 105.473L84.4297 104.717C84.6406 104.225 85.0625 103.715 85.7305 103.188C86.3984 102.678 87.1895 102.414 88.1035 102.414C89.2461 102.414 90.125 102.713 90.7578 103.293C91.3906 103.873 91.707 104.664 91.707 105.666C91.707 106.527 91.3906 107.336 90.793 108.074C90.1953 108.812 89.4395 109.463 88.5605 110.025C87.6816 110.588 86.7148 111.256 85.6777 112.047C84.623 112.838 83.6562 113.664 82.7773 114.543C81.8809 115.422 81.1426 116.6 80.5449 118.094C79.9473 119.605 79.6484 121.275 79.6484 123.121H97.2793ZM120.342 123.121H125.193V105.473H120.342V112.855L120.008 113.119C119.797 113.312 119.428 113.506 118.918 113.682C118.391 113.857 117.846 113.945 117.283 113.945C116.457 113.945 115.771 113.664 115.227 113.084C114.664 112.521 114.4 111.783 114.4 110.887V105.473H109.531V111.238C109.531 113.488 110.129 115.246 111.342 116.529C112.555 117.812 114.172 118.445 116.193 118.445C117.758 118.445 119.146 118.023 120.342 117.18V123.121ZM139.59 123.121H144.441V112.135C144.441 110.131 143.738 108.461 142.332 107.125C140.926 105.789 139.098 105.121 136.883 105.121C136.021 105.121 135.178 105.262 134.352 105.508C133.543 105.754 132.875 106.035 132.365 106.334C131.873 106.633 131.398 106.967 130.977 107.354C130.555 107.74 130.273 108.021 130.15 108.18C130.027 108.338 129.922 108.461 129.852 108.549L132.541 111.238L132.945 110.816C133.227 110.5 133.684 110.201 134.334 109.902C135.002 109.604 135.723 109.445 136.514 109.445C137.48 109.445 138.236 109.691 138.764 110.148C139.309 110.623 139.572 111.221 139.572 111.959L133.982 112.961C132.365 113.26 131.082 113.893 130.15 114.842C129.236 115.809 128.762 117.004 128.762 118.445C128.762 119.852 129.324 121.029 130.414 122.014C131.521 122.998 132.945 123.473 134.703 123.473C135.617 123.473 136.496 123.279 137.34 122.893C138.184 122.506 138.746 122.189 138.992 121.943C139.238 121.697 139.432 121.504 139.572 121.328L139.59 123.121ZM135.969 119.518C134.422 119.518 133.631 118.92 133.631 117.725C133.631 116.617 134.299 115.949 135.617 115.738L139.572 115.018V115.562C139.572 116.811 139.256 117.777 138.605 118.48C137.955 119.184 137.076 119.518 135.969 119.518ZM148.045 114.297C148.045 116.758 148.977 118.902 150.875 120.73C152.756 122.559 154.988 123.473 157.572 123.473C158.486 123.473 159.365 123.35 160.191 123.086C161.018 122.822 161.686 122.541 162.195 122.225C162.723 121.908 163.197 121.557 163.637 121.152C164.094 120.748 164.375 120.467 164.498 120.291C164.621 120.115 164.709 119.992 164.779 119.887L161.896 116.828L161.422 117.426C161.105 117.812 160.578 118.199 159.857 118.586C159.137 118.973 158.381 119.166 157.572 119.166C156.307 119.166 155.217 118.691 154.285 117.742C153.371 116.793 152.896 115.65 152.896 114.314C152.896 112.979 153.371 111.818 154.285 110.869C155.199 109.92 156.307 109.445 157.572 109.445C158.381 109.445 159.137 109.674 159.857 110.096C160.578 110.518 161.053 110.869 161.264 111.133C161.475 111.414 161.633 111.625 161.721 111.783L164.779 108.725L164.516 108.355C164.34 108.109 164.041 107.793 163.619 107.441C163.215 107.09 162.74 106.756 162.213 106.404C161.686 106.053 161.018 105.754 160.191 105.508C159.365 105.262 158.486 105.121 157.572 105.121C154.988 105.121 152.756 106.053 150.857 107.881C148.977 109.709 148.045 111.854 148.045 114.297ZM177.77 123.121H182.621V112.135C182.621 110.131 181.918 108.461 180.512 107.125C179.105 105.789 177.277 105.121 175.062 105.121C174.201 105.121 173.357 105.262 172.531 105.508C171.723 105.754 171.055 106.035 170.545 106.334C170.053 106.633 169.578 106.967 169.156 107.354C168.734 107.74 168.453 108.021 168.33 108.18C168.207 108.338 168.102 108.461 168.031 108.549L170.721 111.238L171.125 110.816C171.406 110.5 171.863 110.201 172.514 109.902C173.182 109.604 173.902 109.445 174.693 109.445C175.66 109.445 176.416 109.691 176.943 110.148C177.488 110.623 177.752 111.221 177.752 111.959L172.162 112.961C170.545 113.26 169.262 113.893 168.33 114.842C167.416 115.809 166.941 117.004 166.941 118.445C166.941 119.852 167.504 121.029 168.594 122.014C169.701 122.998 171.125 123.473 172.883 123.473C173.797 123.473 174.676 123.279 175.52 122.893C176.363 122.506 176.926 122.189 177.172 121.943C177.418 121.697 177.611 121.504 177.752 121.328L177.77 123.121ZM174.148 119.518C172.602 119.518 171.811 118.92 171.811 117.725C171.811 116.617 172.479 115.949 173.797 115.738L177.752 115.018V115.562C177.752 116.811 177.436 117.777 176.785 118.48C176.135 119.184 175.256 119.518 174.148 119.518Z" fill="#00C65E"/>
<circle cx="59.6263" cy="175.11" r="11.1067" transform="rotate(-90 59.6263 175.11)" fill="#FFB762" stroke="white"/>
<path fill-rule="evenodd" clip-rule="evenodd" d="M62.5477 175.694L57.8743 180.367C57.5516 180.69 57.0284 180.69 56.7058 180.367C56.3831 180.045 56.3831 179.522 56.7058 179.199L60.7951 175.11L56.7054 171.02C56.3827 170.697 56.3827 170.174 56.7054 169.851C57.028 169.529 57.5512 169.529 57.8739 169.851L62.5287 174.506C62.5353 174.512 62.5414 174.519 62.5477 174.525C62.8297 174.808 62.8652 175.244 62.6536 175.564C62.6233 175.61 62.5881 175.653 62.5477 175.694Z" fill="white"/>
<path opacity="0.4" d="M545.342 172.643C542.412 194.324 518.986 206.653 499.456 196.792L435.53 164.516C412.441 152.857 412.163 119.986 435.052 107.94L508.567 69.2492C531.456 57.2026 558.394 76.0425 554.93 101.675L545.342 172.643Z" fill="white"/>
<path fill-rule="evenodd" clip-rule="evenodd" d="M378.344 98.3399C378.344 94.1308 381.756 90.7188 385.965 90.7188H472.656C476.865 90.7188 480.277 94.1308 480.277 98.3399V110.212H500.055C503.039 110.212 505.748 111.953 506.987 114.668L515.788 133.94C516.241 134.934 516.476 136.014 516.476 137.106V153.063C516.476 157.272 513.064 160.684 508.855 160.684H480.277V160.69H385.965C381.756 160.69 378.344 157.278 378.344 153.069V98.3399Z" fill="white"/>
<path d="M500.7 117.586H487.335C486.493 117.586 485.811 118.268 485.811 119.11V134.125C485.811 134.967 486.493 135.649 487.335 135.649H508.086C509.195 135.649 509.933 134.501 509.472 133.492L502.836 118.959C502.454 118.123 501.619 117.586 500.7 117.586Z" fill="#00C65E"/>
<path d="M482.813 171.309C475.518 171.309 469.604 165.394 469.604 158.099C469.604 150.803 475.518 144.889 482.813 144.889C490.109 144.889 496.023 150.803 496.023 158.099C496.023 165.394 490.109 171.309 482.813 171.309Z" fill="#00C65E"/>
<path d="M482.814 164.702C479.166 164.702 476.209 161.745 476.209 158.097C476.209 154.449 479.166 151.492 482.814 151.492C486.462 151.492 489.419 154.449 489.419 158.097C489.419 161.745 486.462 164.702 482.814 164.702Z" fill="white"/>
<path d="M412.003 171.309C404.707 171.309 398.793 165.394 398.793 158.099C398.793 150.803 404.707 144.889 412.003 144.889C419.299 144.889 425.213 150.803 425.213 158.099C425.213 165.394 419.299 171.309 412.003 171.309Z" fill="#00C65E"/>
<path d="M412.003 164.702C408.356 164.702 405.398 161.745 405.398 158.097C405.398 154.449 408.356 151.492 412.003 151.492C415.651 151.492 418.608 154.449 418.608 158.097C418.608 161.745 415.651 164.702 412.003 164.702Z" fill="white"/>
<path d="M327.457 112.072L351.774 112.072" stroke="#00C65E" stroke-width="4.57268" stroke-linecap="round"/>
<path d="M350.489 122.318L366.963 122.318" stroke="white" stroke-width="3.04845" stroke-linecap="round"/>
<path d="M307.846 134.746L347.108 134.746" stroke="#00C65E" stroke-width="4.57268" stroke-linecap="round"/>
<path d="M334.383 149.672L355.425 149.672" stroke="white" stroke-width="3.04845" stroke-linecap="round"/>
<path d="M431.517 125.704C450.382 125.704 465.675 110.411 465.675 91.5464C465.675 72.6816 450.382 57.3887 431.517 57.3887C412.652 57.3887 397.359 72.6816 397.359 91.5464C397.359 110.411 412.652 125.704 431.517 125.704Z" fill="#00C65E"/>
<path d="M431.517 120.565C447.545 120.565 460.538 107.571 460.538 91.5431C460.538 75.5149 447.545 62.5215 431.517 62.5215C415.489 62.5215 402.495 75.5149 402.495 91.5431C402.495 107.571 415.489 120.565 431.517 120.565Z" fill="white"/>
<path d="M431.516 120.92C425.707 120.918 420.028 119.195 415.198 115.966C410.368 112.738 406.604 108.15 404.382 102.782C402.159 97.4143 401.579 91.5082 402.713 85.8104C403.847 80.1127 406.645 74.8791 410.753 70.7716C414.862 66.664 420.096 63.8669 425.794 62.7339C431.492 61.601 437.398 62.183 442.765 64.4065C448.132 66.63 452.719 70.395 455.947 75.2256C459.174 80.0561 460.897 85.7352 460.897 91.5447C460.888 99.3336 457.789 106.801 452.281 112.308C446.773 117.815 439.305 120.912 431.516 120.92ZM431.516 62.8764C425.846 62.8764 420.304 64.5577 415.589 67.7079C410.875 70.858 407.2 75.3354 405.03 80.5738C402.861 85.8123 402.293 91.5765 403.399 97.1377C404.505 102.699 407.236 107.807 411.245 111.816C415.254 115.826 420.362 118.556 425.924 119.662C431.485 120.768 437.249 120.201 442.487 118.031C447.726 115.861 452.203 112.187 455.353 107.472C458.503 102.758 460.185 97.2148 460.185 91.5447C460.179 83.9422 457.157 76.6527 451.782 71.2758C446.407 65.8989 439.119 62.874 431.516 62.8648V62.8764Z" fill="white"/>
<path d="M431.107 63.373C441.837 63.373 451.207 69.1957 456.229 77.8536" stroke="#F89358" stroke-width="3.04845" stroke-linecap="round"/>
<path d="M431.499 93.9147C432.798 93.9147 433.85 92.8622 433.85 91.5638C433.85 90.2654 432.798 89.2129 431.499 89.2129C430.201 89.2129 429.148 90.2654 429.148 91.5638C429.148 92.8622 430.201 93.9147 431.499 93.9147Z" fill="#00C65E"/>
<path d="M432.653 68.5543V65.6359C432.653 65.0107 432.146 64.5039 431.521 64.5039C430.895 64.5039 430.389 65.0107 430.389 65.6359V68.5543C430.389 69.1795 430.895 69.6863 431.521 69.6863C432.146 69.6863 432.653 69.1795 432.653 68.5543Z" fill="#00C65E"/>
<path d="M432.635 117.472V114.554C432.635 113.929 432.128 113.422 431.503 113.422C430.878 113.422 430.371 113.929 430.371 114.554V117.472C430.371 118.097 430.878 118.604 431.503 118.604C432.128 118.604 432.635 118.097 432.635 117.472Z" fill="#00C65E"/>
<path d="M408.498 90.4195H405.579C404.954 90.4195 404.447 90.9264 404.447 91.5516C404.447 92.1768 404.954 92.6836 405.579 92.6836H408.498C409.123 92.6836 409.63 92.1768 409.63 91.5516C409.63 90.9264 409.123 90.4195 408.498 90.4195Z" fill="#00C65E"/>
<path d="M457.421 90.4254H454.502C453.877 90.4254 453.37 90.9322 453.37 91.5574C453.37 92.1826 453.877 92.6895 454.502 92.6895H457.421C458.046 92.6895 458.553 92.1826 458.553 91.5574C458.553 90.9322 458.046 90.4254 457.421 90.4254Z" fill="#00C65E"/>
<path d="M417.815 68.7207L419.972 72.4566C420.092 72.6643 420.358 72.7355 420.565 72.6156C420.773 72.4957 420.844 72.2301 420.724 72.0223L418.567 68.2864C418.447 68.0787 418.182 68.0075 417.974 68.1275C417.766 68.2474 417.695 68.513 417.815 68.7207Z" fill="#00C65E"/>
<path d="M408.23 78.6242L411.966 80.7812C412.174 80.9011 412.439 80.8299 412.559 80.6222C412.679 80.4145 412.608 80.1489 412.4 80.029L408.664 77.872C408.457 77.7521 408.191 77.8233 408.071 78.031C407.951 78.2387 408.022 78.5043 408.23 78.6242Z" fill="#00C65E"/>
<path d="M408.657 105.247L412.393 103.09C412.601 102.971 412.672 102.705 412.552 102.497C412.432 102.289 412.167 102.218 411.959 102.338L408.223 104.495C408.015 104.615 407.944 104.881 408.064 105.088C408.184 105.296 408.45 105.367 408.657 105.247Z" fill="#00C65E"/>
<path d="M418.941 115.194L421.098 111.441C421.218 111.232 421.146 110.966 420.937 110.846C420.729 110.726 420.462 110.798 420.342 111.007L418.185 114.76C418.066 114.968 418.138 115.235 418.346 115.355C418.555 115.475 418.821 115.403 418.941 115.194Z" fill="#00C65E"/>
<path d="M445.191 114.402L443.034 110.666C442.914 110.459 442.648 110.388 442.441 110.507C442.233 110.627 442.162 110.893 442.282 111.101L444.439 114.837C444.558 115.044 444.824 115.116 445.032 114.996C445.239 114.876 445.311 114.61 445.191 114.402Z" fill="#00C65E"/>
<path d="M454.776 104.499L451.04 102.342C450.832 102.222 450.567 102.293 450.447 102.501C450.327 102.709 450.398 102.974 450.606 103.094L454.342 105.251C454.549 105.371 454.815 105.3 454.935 105.092C455.055 104.884 454.983 104.619 454.776 104.499Z" fill="#00C65E"/>
<path d="M454.348 77.8698L450.612 80.0268C450.404 80.1467 450.333 80.4123 450.453 80.62C450.573 80.8277 450.838 80.8989 451.046 80.779L454.782 78.622C454.99 78.5021 455.061 78.2365 454.941 78.0288C454.821 77.8211 454.555 77.7499 454.348 77.8698Z" fill="#00C65E"/>
<path d="M444.443 68.2877L442.286 72.0236C442.166 72.2313 442.237 72.4969 442.445 72.6168C442.653 72.7368 442.919 72.6656 443.038 72.4579L445.195 68.722C445.315 68.5143 445.244 68.2487 445.036 68.1287C444.829 68.0088 444.563 68.08 444.443 68.2877Z" fill="#00C65E"/>
<path d="M432.953 91.5466H430.086L429.305 74.4648H433.734L432.953 91.5466Z" fill="#00C65E"/>
<path d="M436.885 73.7302C437.174 74.0182 436.969 74.5108 436.562 74.5108H426.471C426.064 74.5108 425.86 74.0182 426.148 73.7302L431.193 68.6847C431.372 68.5061 431.661 68.5061 431.84 68.6847L436.885 73.7302Z" fill="#00C65E"/>
<path d="M432.833 92.6682L432.142 91.5667L446.181 81.8061L447.708 84.2303L432.833 92.6682Z" fill="#00C65E"/>
<path d="M448.937 85.2967C448.877 85.5614 448.526 85.621 448.382 85.3912L445.426 80.6919C445.281 80.4621 445.487 80.1722 445.751 80.2323L449.581 81.1017C449.746 81.139 449.848 81.3025 449.811 81.4668L448.937 85.2967Z" fill="#00C65E"/>
</g>
</g>
</g>
<defs>
<filter id="filter0_d_1652_36066" x="0" y="0.00390625" width="608" height="238" filterUnits="userSpaceOnUse" color-interpolation-filters="sRGB">
<feFlood flood-opacity="0" result="BackgroundImageFix"/>
<feColorMatrix in="SourceAlpha" type="matrix" values="0 0 0 0 0 0 0 0 0 0 0 0 0 0 0 0 0 0 127 0" result="hardAlpha"/>
<feMorphology radius="3" operator="dilate" in="SourceAlpha" result="effect1_dropShadow_1652_36066"/>
<feOffset dx="1" dy="2"/>
<feGaussianBlur stdDeviation="8"/>
<feColorMatrix type="matrix" values="0 0 0 0 0.211765 0 0 0 0 0.227451 0 0 0 0 0.270588 0 0 0 0.08 0"/>
<feBlend mode="normal" in2="BackgroundImageFix" result="effect1_dropShadow_1652_36066"/>
<feBlend mode="normal" in="SourceGraphic" in2="effect1_dropShadow_1652_36066" result="shape"/>
</filter>
<filter id="filter1_d_1652_36066" x="0" y="-0.00195312" width="613.596" height="251.742" filterUnits="userSpaceOnUse" color-interpolation-filters="sRGB">
<feFlood flood-opacity="0" result="BackgroundImageFix"/>
<feColorMatrix in="SourceAlpha" type="matrix" values="0 0 0 0 0 0 0 0 0 0 0 0 0 0 0 0 0 0 127 0" result="hardAlpha"/>
<feMorphology radius="3" operator="dilate" in="SourceAlpha" result="effect1_dropShadow_1652_36066"/>
<feOffset dx="1" dy="2"/>
<feGaussianBlur stdDeviation="8"/>
<feColorMatrix type="matrix" values="0 0 0 0 0.211765 0 0 0 0 0.227451 0 0 0 0 0.270588 0 0 0 0.08 0"/>
<feBlend mode="normal" in2="BackgroundImageFix" result="effect1_dropShadow_1652_36066"/>
<feBlend mode="normal" in="SourceGraphic" in2="effect1_dropShadow_1652_36066" result="shape"/>
</filter>
<clipPath id="clip0_1652_36066">
<rect x="18" y="17.0039" width="570" height="200" rx="10" fill="white"/>
</clipPath>
</defs>
</svg>
