<svg width="105" height="53" viewBox="0 0 105 53" fill="none" xmlns="http://www.w3.org/2000/svg">
<path d="M1.00003 50.5C1.04217 32.546 1.00317 20.4398 1.00003 1H34.9019C37.9787 5.46828 35.6693 6.21105 34.9019 9H8.91047V22.5H34.9019C36.8696 25.5861 36.5819 27.2053 34.9019 30H8.91047V43.5H34.9019C36.8097 46.5132 36.9295 48.0635 34.9019 50.5H1.00003Z" fill="#00C65E" stroke="#00C65E"/>
<path d="M42.3541 50V23.8182H49.3939V28.3864H49.6666C50.1439 26.7614 50.945 25.5341 52.07 24.7045C53.195 23.8636 54.4905 23.4432 55.9564 23.4432C56.32 23.4432 56.7121 23.4659 57.1325 23.5114C57.553 23.5568 57.9223 23.6193 58.2405 23.6989V30.142C57.8996 30.0398 57.428 29.9489 56.8257 29.8693C56.2234 29.7898 55.6723 29.75 55.1723 29.75C54.1041 29.75 53.1496 29.983 52.3087 30.4489C51.4791 30.9034 50.82 31.5398 50.3314 32.358C49.8541 33.1761 49.6155 34.1193 49.6155 35.1875V50H42.3541ZM61.9947 50V23.8182H69.2561V50H61.9947ZM65.6425 20.4432C64.5629 20.4432 63.6368 20.0852 62.8641 19.3693C62.1027 18.642 61.722 17.7727 61.722 16.7614C61.722 15.7614 62.1027 14.9034 62.8641 14.1875C63.6368 13.4602 64.5629 13.0966 65.6425 13.0966C66.722 13.0966 67.6425 13.4602 68.4038 14.1875C69.1766 14.9034 69.5629 15.7614 69.5629 16.7614C69.5629 17.7727 69.1766 18.642 68.4038 19.3693C67.6425 20.0852 66.722 20.4432 65.6425 20.4432ZM81.6524 42.4659L81.6695 33.7557H82.7263L91.1126 23.8182H99.4479L88.1808 36.9773H86.4592L81.6524 42.4659ZM75.0729 50V15.0909H82.3342V50H75.0729ZM91.4365 50L83.732 38.5966L88.5729 33.4659L99.9422 50H91.4365Z" fill="#00C65E"/>
</svg>
